<svg xmlns="http://www.w3.org/2000/svg" height="520" id="svg160" version="1.1" width="711.14801">
  <defs id="defs1">
    <rect x="-2.7997935" y="-2.7997935" width="164.63414" height="21.928841" id="rect2" />
    <style id="style1" type="text/css">
                    .state {
                        fill: #6467a2
                    }

                    /* default color for all states not specified below */
                    .borders {
                        stroke: #FFFFFF;
                        stroke-width: 1
                    }

                    /* color and width of borders between states */
                    .dccircle {
                        display: yes
                    }

                    /* set display to yes to show the circle for the District of Columbia, or none to hide it */
                    .separator1 {
                        stroke: #B0B0B0;
                        stroke-width: 2
                    }

                    /* color and width of lines around Alaska and Hawaii */

                    /* Individual states can be colored as follows:
.ks,.mt,.pa {fill:#0000FF}
.ca,.de {fill:#FF0000}
In this example, Kansas, Montana and Pennsylvania are colored blue, and California and Delaware are colored red.
Place this code in the empty space below. */
                </style>
  </defs>
  <g class="state" id="g52" style="fill-opacity:1;stroke:#000000;stroke-width:2.5;stroke-dasharray:none;stroke-opacity:1" transform="translate(-9.328606,63.259788)">
    <path class="state" id="Alabama" d="m 499.50307,359.95116 0.30942,-5.58547 -0.6962,-0.91816 -1.31504,-0.53559 -1.93389,-2.14237 0.38678,-2.21889 37.74946,-3.90218 -0.54148,-1.68329 -1.16035,-1.1477 -0.38678,-1.07118 0.46414,-4.82034 -1.85652,-4.36126 0.38677,-1.98934 0.23206,-2.83099 1.70183,-2.90751 -0.15471,-0.84165 -1.31505,-0.76513 v -2.44841 l -1.3924,-1.45376 -2.2433,-4.66732 -9.97886,-35.04309 -35.35143,3.06054 1.00562,1.53027 -1.00562,51.2639 3.40363,25.40241 0.6962,-0.38257 1.00563,0.0765 0.46413,0.30606 0.61884,-0.0765 1.54711,-2.90751 v -1.75981 l 0.85091,-0.84163 1.08298,0.38255 2.63008,4.89685 v 0.68862 l -2.55273,1.68329 2.70744,-0.30605 3.79041,-1.22422 z" style="fill-opacity:1;stroke:#000000;stroke-width:1.92333;stroke-dasharray:none;stroke-opacity:1;fill:#365c8d" />
    
    <path class="state" id="Alaska" d="m 14.329698,439.98406 h 1.85653 l 0.541489,0.53559 -0.773556,0.91816 -1.469754,0.15302 -1.933884,0.99468 -2.8621526,-0.0765 1.7018196,-0.68862 0.232066,-0.84165 1.933887,-0.22954 z m 6.420502,-1.30073 1.005621,0.38256 h 0.696199 l 0.386776,0.91817 0.232066,-0.45908 0.6962,0.15303 0.85091,1.14769 v 0.38257 l -3.248929,1.45375 -1.856531,-0.0765 -0.773554,-0.38257 -0.85091,0.53559 h -1.547109 l -0.85091,-1.07118 3.635706,-0.38258 z m 4.177194,-0.0765 0.773554,0.0765 0.541489,0.53559 v 0.76514 l -1.005623,0.0765 -0.696198,-0.84165 z m 1.933886,0.22954 1.00562,-0.0765 -0.07736,0.76513 -0.85091,0.45909 z m 0.232066,1.68329 2.630085,-0.0765 0.154711,0.84164 -1.005621,0.0765 -0.232066,-0.38258 -0.618843,0.45908 -0.309422,-0.45908 -0.6962,-0.15303 z m 128.642104,5.81502 1.62447,0.0765 -0.77356,1.45375 -0.85091,-0.0765 -0.30942,-0.6121 0.38678,-0.99468 m -0.85091,-2.21888 0.46413,-0.99468 -0.15471,-1.7598 1.85654,-0.38257 3.48099,3.36658 1.00562,2.60146 1.46976,1.22421 0.23205,3.90218 h -1.08297 l -1.00562,-1.7598 -2.39802,-1.83632 h -0.46413 l 0.85092,2.14237 1.31504,0.15303 0.15471,1.60678 -0.69621,0.0765 -3.17156,-3.36659 -0.0774,-0.68862 1.46976,-0.76514 v -0.76513 l -0.38678,-0.6121 -1.23769,-0.45908 -1.31504,-0.99467 1.08298,0.0765 0.38677,-0.30606 -0.46412,-0.68862 -0.46414,0.38257 z m -2.78478,-6.96271 1.00561,0.0765 1.85652,1.91283 -0.1547,0.61211 -0.61884,-0.0765 -0.0774,1.37724 0.38678,0.38255 v 1.14772 l -0.61885,0.22953 -0.30943,0.91816 -0.61883,-0.30605 -0.30943,-1.6833 0.85092,-1.07118 -1.62447,-1.68329 0.0773,-0.91816 z m 1.16032,-1.1477 1.46975,0.15303 1.93388,0.0765 2.6301,2.44842 -0.15471,0.38257 -0.85092,0.45907 -0.85091,-0.15302 -0.0774,-0.53559 -0.92825,-1.22422 -0.23207,0.5356 0.77355,0.99467 -0.15471,0.91816 -0.61884,-0.0765 -1.00563,0.15302 -0.0773,-1.30073 -2.01125,-2.14237 z m -9.82415,-6.80969 0.6962,-0.30605 h 1.23769 l 0.54149,-0.38256 3.17157,1.68329 0.0774,1.1477 -0.38678,0.38256 h -0.61884 l -1.08297,-0.53559 0.85089,0.99468 h 1.39241 l 0.38678,1.53026 h -0.69621 l -1.70181,-1.1477 -0.8509,-0.15303 0.46412,0.99467 0.0774,0.68863 0.61884,-0.45909 1.31505,0.91817 1.00562,-0.0765 -0.15471,0.61211 1.46975,3.29007 v 2.60145 l 0.30943,1.60679 -0.61884,0.22954 -0.92827,-1.53028 -0.38677,-1.14768 -1.23769,-1.22422 -0.15472,-2.06585 -0.46413,-1.30073 h -0.54149 l 0.23207,0.84164 v 0.38258 l -1.08298,0.76513 0.0774,-2.52494 -1.2377,-1.22421 -1.00561,-1.75981 -0.92827,-0.91817 z m 5.56959,-1.7598 0.85091,1.37724 1.85653,-0.0765 0.77356,1.60678 -0.46414,0.45908 1.54711,2.44842 v 0.99468 l -0.92826,0.61211 v 0.53557 l -1.5471,1.45377 -0.38679,-1.07119 -0.0774,-0.99468 0.46414,-0.53558 v -0.84166 l -1.16033,-1.45374 -0.38679,-2.83099 -0.69619,-1.14771 z m -43.86053,-14.00192 -3.09422,3.13704 v 1.2242 l 1.62446,-0.6121 0.61885,-1.45375 1.70181,-1.83632 z m -24.444324,12.70122 v 0.45908 l 1.392399,0.91815 0.154711,-1.07118 0.464132,0.68861 2.707442,0.0765 0.541488,-0.45909 0.154711,-1.37724 -0.386778,-0.53559 h -1.082976 v -0.61211 l 0.309422,-0.45907 v -0.30606 l -1.160333,-0.22955 -2.552728,2.75449 z m -6.26579,4.74382 1.160331,4.43777 h 1.624465 l 1.856532,-1.91284 0.232065,0.91816 4.873393,-3.06053 0.541488,-0.76514 -0.773555,-0.84163 v -0.5356 l 0.386778,-0.99467 -0.696198,-0.0765 -1.54711,0.76513 v -0.91816 l -2.088597,-0.45908 -1.856531,0.22954 -0.15471,2.60146 -0.618845,-1.53027 -1.16033,-0.0765 -0.773555,0.45908 z m -1.70182,6.27408 0.07736,-0.53559 1.624463,-0.99467 0.464133,0.22955 1.005622,0.15302 1.005619,0.91816 -1.701819,-0.15302 -0.309422,-0.45909 -0.773553,0.45909 z m -4.022484,2.52495 -0.850909,0.61211 1.160332,1.07118 0.618844,-0.5356 -0.07736,-0.99466 z m -4.873393,-6.04456 1.082976,0.0765 0.309423,0.45909 -1.392399,0.0765 z m -10.752407,9.10507 v 0.38256 l 0.541488,0.0765 -0.07736,-0.45909 z m -0.309421,-2.44842 -0.773554,0.76513 v 0.38255 l 0.541487,0.84166 0.773555,-0.76514 -0.541488,-0.0765 z m -1.54711,-0.61211 -0.232066,0.76513 -1.005621,0.0765 -0.309422,0.15303 v 0.99468 l -0.386777,0.68862 h 0.464132 l 0.54149,-0.68862 0.618843,-0.0765 0.696199,-0.76513 0.154709,-0.99466 z m -3.403639,-1.53027 -0.154711,1.37723 1.082977,0.61212 0.928264,-0.45908 v -0.76514 l 1.315043,-0.22953 -0.07735,-0.45908 -0.696199,-0.15303 -0.541488,0.45908 -0.696199,-0.38257 z m -3.790418,-0.0765 0.773555,0.53558 -0.232066,0.91816 -1.082977,-0.84164 z m -3.248929,0.99466 1.082977,0.0765 -0.541488,0.61211 z m -2.70744,2.2954 1.392399,0.84164 -1.315044,0.0765 z m -19.648284,-23.87211 0.928266,0.45907 -0.618844,0.45908 z m -0.541487,-4.82034 0.309422,0.91817 0.618842,-0.91817 z m 18.797372,-14.76707 1.160332,-0.0765 0.696199,0.30605 0.850911,-0.38257 1.005621,-0.0765 1.237687,0.6121 0.618843,1.45376 -0.07736,0.68861 -0.928265,1.53026 -1.856531,-0.15302 -1.624464,-1.37724 -0.773555,-0.30605 -0.85091,-1.53026 z m -16.321998,-11.01792 0.07735,1.45376 1.547111,1.53027 v 0.38256 l -0.618845,-0.15302 -1.315042,-0.61211 -0.232067,-0.84165 -0.232066,-1.22421 z m 14.156046,-17.8276 v 0.91815 l 1.469754,1.37724 h 1.779175 l 0.464133,0.84165 v 1.22422 l 1.624464,1.45374 1.3924,0.91816 -0.07736,0.5356 -0.541487,0.84165 -1.082977,-0.91817 -1.624466,0.0765 -0.618843,-0.6121 -0.696199,-1.60678 -1.160331,-1.6833 -2.011241,-0.0765 -0.773555,-0.5356 0.773555,-1.60678 z m 12.995716,-3.4431 h 0.773555 l 0.07735,0.84164 H 47.66989 Z m 12.531582,15.07311 0.6962,0.0765 v 0.91816 l -1.315043,-0.38257 z m 98.860258,59.45083 -0.92825,0.30605 -0.0774,0.84164 h 0.92828 z m -121.912181,-3.44311 -1.005621,-0.30604 -3.171574,0.45908 -2.165952,1.07119 -0.07736,1.45374 1.469752,0.53559 1.160332,-0.68862 1.315043,-0.0765 3.635706,1.07118 0.07735,-0.99468 -1.237688,-0.84163 z m 1.624464,1.75981 -0.309422,-1.07118 0.928266,0.15302 0.07735,1.07118 h 1.3924 l 0.309421,-1.91283 0.232066,1.83633 1.933886,-0.0765 2.475374,-2.52493 0.618844,0.0765 -0.541488,0.99467 1.082977,0.68862 3.248928,-0.15303 2.011243,-0.91816 1.082975,-0.0765 0.232066,1.1477 0.464133,-0.38257 0.309422,-1.07118 4.563971,0.15302 1.469754,-1.2242 -1.005621,-0.84166 0.464133,-0.91816 2.011241,0.15303 -0.15471,-0.91816 1.933886,0.15303 0.541488,-0.84164 0.85091,0.15302 3.558351,-1.45375 0.15471,-1.30073 4.331905,-1.83632 1.547109,-1.45374 0.928266,-0.45909 1.00562,0.61211 1.779176,-0.68863 0.850909,-1.45373 0.386778,-0.99468 1.315042,-0.68863 1.160332,-0.53559 0.309421,-1.07119 -0.850908,-1.30071 -1.701821,-0.15304 -0.154711,-0.99466 0.618844,-1.22422 1.082977,-0.15303 1.005619,-1.1477 1.469755,-0.0765 2.630085,-2.44843 0.309422,-1.07118 1.160332,-1.7598 2.939507,-3.13705 1.933898,-0.68862 1.469746,-0.68862 1.62446,0.61211 1.082988,1.98934 H 95.70762 l -1.082961,-1.14769 -2.320673,1.53026 -1.315048,0.0765 -0.154709,2.37193 -2.39802,3.74914 0.464133,1.53027 h 1.779176 l -0.464134,0.76513 -1.082976,0.0765 -1.856532,1.37723 v 0.68863 l 1.469755,0.76513 2.630092,-0.45908 1.082968,-1.30073 1.08297,0.0765 2.320673,-1.30074 0.386766,-1.75979 1.237694,-0.0765 4.873386,0.6121 0.77356,-0.84164 0.77356,-3.4431 -1.2377,0.84165 0.46414,-1.68329 -1.23768,-1.07119 0.61883,-1.14769 0.0774,1.14769 h 2.6301 l 0.54148,-0.76514 1.23769,-0.0765 -0.23207,1.30073 1.46975,0.0765 -1.46975,0.99467 3.17157,0.84164 -2.70744,0.30605 -1.00562,0.91816 0.6962,1.07119 3.55835,-1.30073 1.77918,1.30073 0.54148,-0.68862 0.46414,1.07119 3.09421,1.7598 h 2.24331 l 3.01687,-0.38256 3.32628,0.84164 1.54711,1.45376 3.481,0.30605 1.39239,-1.14771 0.61884,1.83633 -1.39239,0.53559 0.92827,0.91816 5.72429,2.90749 1.08299,1.91284 4.17719,3.13705 2.55273,-1.53027 -0.46413,-1.68329 -2.70745,-1.53027 2.39802,0.91816 0.38678,-0.53558 0.6962,0.99467 v 2.06586 l 1.62446,-0.45908 1.62447,1.37724 -1.93389,-7.4983 0.92827,0.99467 1.08297,4.59079 1.70183,1.91284 1.85653,-0.30605 1.39239,2.67796 h 0.6962 l 0.46413,4.28474 2.63009,0.38255 1.23768,1.68331 1.39241,0.84165 0.30942,2.14236 -1.39241,1.98935 2.24331,1.22422 0.92827,-1.83633 -0.15471,2.37192 -0.61884,0.68861 1.08298,1.30073 0.54149,-1.83631 -0.15473,-0.91817 0.61885,0.15302 0.46412,1.75981 -0.77354,1.07119 0.46413,1.98934 0.38679,0.30606 0.23205,-1.22422 0.54149,0.45909 -0.23206,1.53027 0.92827,0.15302 -0.30942,0.68861 1.31503,-0.0765 v -0.76514 h -0.77355 l 0.0773,-1.30072 -0.61883,-0.45908 1.31503,-0.22954 0.38677,-0.61211 v -1.22421 l 0.3868,0.99468 -0.46414,1.37724 0.92826,2.98401 1.3924,0.0765 1.70183,-3.21355 0.0773,-1.45376 -1.00562,-3.06053 -0.0774,-0.91816 0.38679,-0.91816 -0.54149,-0.53558 -1.31504,0.0765 -1.93389,-1.53027 h -1.31505 l -1.5471,-1.07118 h -1.16033 l -0.38679,-1.22421 -1.08297,-0.22955 -0.15471,-1.14769 -0.77355,-0.38257 0.0774,-1.30071 -3.94513,-5.662 -1.39239,-1.14769 v -0.91816 l -3.32629,-2.67797 -0.54148,-0.84165 -1.2377,-1.53027 -1.46974,-0.45907 v -1.6833 l -0.92828,-0.99466 -1.31504,-0.5356 -1.62446,0.99468 -1.23769,1.60677 -0.30942,1.83632 -1.16034,0.0765 -1.93388,2.06587 -0.61883,-0.22955 v -1.91284 l -1.85653,-1.68329 -1.77918,-1.53027 -0.38677,-1.53027 -1.93389,-0.99467 0.1547,-1.68329 -2.16594,-0.0765 -0.5415,0.84164 h -0.92826 l -0.54148,-0.53559 -0.92827,0.61211 -1.3924,-0.91816 v -65.6484 l -5.33753,-3.13704 -1.3924,-0.38257 -1.70181,0.84165 -1.70182,0.0765 -1.77918,-1.22422 -3.32628,-0.45907 -4.48661,-2.75448 -4.40927,-0.30606 -1.5471,0.38258 -0.15471,-1.37725 -1.392403,-0.53558 0.850903,-0.76514 -0.15471,-0.68863 -2.475376,-0.84163 h -1.856522 l -0.309428,0.30605 -0.696194,-0.45909 0.07736,-1.98934 -0.618855,-0.68862 -1.933879,2.21889 -0.618847,-0.0765 v -0.61211 l 1.315051,-0.6121 v -0.61211 l -1.469762,-1.83632 -0.850912,-0.0765 -3.480996,2.37191 h -3.016939 l 0.309423,-0.68861 -1.392399,-0.0765 -4.022482,2.60147 h -1.3924 l -0.464132,-0.61211 -2.088596,1.14769 -2.784797,2.831 -2.165953,2.06585 -1.160331,0.91816 -2.011242,0.0765 -1.70182,-0.30604 -1.779175,-0.99468 v 0 l -2.165953,2.98402 -0.07735,1.83631 2.011241,1.83633 1.624466,3.44309 0.154709,4.05521 2.24331,1.53027 2.630085,0.30605 0.541488,0.6121 -1.160332,1.75981 0.541488,2.06586 -1.315043,-1.98934 v -1.83633 l -1.160331,-0.22953 0.07735,0.91816 0.541488,1.60678 2.243308,2.83098 H 69.25199 l -1.701819,0.84165 -4.796038,-1.91283 -0.07736,-1.53027 1.082976,-0.99467 v -1.07119 l -1.624465,-0.38256 -1.779174,0.15302 -3.713062,0.15303 1.160331,1.75981 -1.469753,-1.37724 -6.497858,0.91817 -0.618843,1.14768 3.790418,3.59613 -0.618845,1.07119 -0.232066,1.53025 -0.541488,0.61212 -0.07736,1.45375 3.403639,2.75448 3.171573,0.15303 3.558352,1.45375 h 1.547108 l 0.618844,-0.45908 2.939507,0.0765 0.07736,-0.6121 0.928264,0.84165 0.07736,1.53026 -1.933886,-0.0765 0.07736,2.52495 0.386778,2.44842 -2.243309,2.06586 -1.469754,-0.0765 -1.547108,-0.6121 -0.773556,0.0765 -2.398018,1.60677 -1.315042,0.15302 -1.082976,-2.14236 h -2.39802 l -1.70182,1.53026 -0.386777,1.37725 -2.552729,1.37724 -4.099839,3.29007 -0.232066,2.3719 0.541488,1.6833 0.773555,0.91816 0.773554,-0.30605 0.696199,0.76514 -0.618844,0.45907 -1.160332,0.68862 0.85091,1.14771 -2.011242,0.84163 0.618844,1.68331 1.315043,1.75979 0.618843,3.13706 3.094218,1.14769 2.011243,-0.61211 1.315042,-0.84164 0.386777,1.60678 0.232066,3.36658 -1.469754,1.07118 v 3.3666 l -0.464131,0.68861 h -1.315044 l 1.315044,0.91817 1.624463,-0.0765 0.309422,-0.76513 3.55835,-0.45908 1.54711,1.98934 1.00562,-0.53558 1.005621,3.90217 0.773555,0.38257 0.773554,-0.5356 0.07736,-1.83631 0.696199,-0.76515 0.541489,0.84166 0.154711,1.22421 1.237687,0.30606 3.635705,-0.91816 0.154712,0.91816 -1.547109,0.84163 -1.237688,1.30074 -2.165952,5.35592 -3.326285,1.53027 -1.082974,1.1477 -0.232069,1.07119 -0.773554,-0.45907 -7.194056,2.52493 -1.392398,3.13703 -1.005621,-0.30605 0.386777,-0.84164 -1.160331,-1.07119 -2.707442,-0.15302 -4.099838,2.44841 -1.70182,0.99467 h -1.779175 l -0.386777,1.83633 z" style="fill-opacity:1;stroke:#000000;stroke-width:1.92333;stroke-dasharray:none;stroke-opacity:1;fill:#fde725" />
    <path class="state" id="Arizona" d="m 110.09574,298.89356 2.32067,-1.68329 0.61884,-1.83631 -0.77356,-1.22422 -1.39239,-0.15303 -0.85091,-1.22421 0.85091,-5.27942 1.23769,-0.22954 1.85652,-2.44843 1.23769,-5.35592 1.85653,-2.75449 3.71307,-1.30072 1.00562,-0.99467 -0.30943,-1.45374 -1.77916,-1.91284 -0.92828,-4.43778 -1.08297,-1.37723 -1.00562,-2.60145 0.69619,-1.60679 1.08297,-2.29539 0.38679,-2.21889 -0.38679,-3.74914 0.77356,-10.40581 2.70745,-0.45909 2.86215,1.07119 0.92826,2.06587 h 1.54711 l 1.85654,-2.21889 2.63009,-13.38983 35.7382,6.27408 30.94219,4.5908 -13.45986,94.95299 -28.85357,-4.13172 -49.6622,-28.69248 0.38677,-2.21888 1.54711,-1.37725 z" style="fill-opacity:1;stroke:#000000;stroke-width:1.92333;stroke-dasharray:none;stroke-opacity:1;fill:#277f8e" />
    <path class="state" id="Arkansas" d="m 454.01806,283.13183 0.69621,-1.68329 0.92826,0.38256 0.54148,-0.76513 -0.61884,-0.5356 0.23207,-1.1477 -0.85091,-0.68862 0.46413,-0.76512 -0.0774,-1.14771 -0.8509,-0.0765 0.61883,-0.61211 1.00563,0.61211 0.23207,-1.07118 -0.30943,-0.84165 0.0774,-0.53559 1.54711,0.45908 -0.30943,-1.14771 1.2377,-0.99468 -0.38678,-0.6886 -0.85092,0.0765 -0.46412,-0.68861 0.6962,-0.68864 1.23768,-0.15302 0.38678,-0.61211 1.08297,-0.15302 -0.0774,-0.61211 -0.69618,-0.68861 v -0.38258 h 1.16032 l 0.30942,-0.53557 -1.08298,-0.76515 -0.0774,-0.45907 -8.66382,0.61211 2.16596,-3.90218 1.31504,-1.14771 v -1.68329 l -1.23768,-1.91283 -30.78747,1.53027 -30.24598,0.53559 3.17157,18.66924 -0.54149,29.84019 2.01124,1.7598 2.16595,-0.99467 2.47538,0.6121 0.15471,9.10508 40.45689,-0.99467 0.92827,-1.1477 0.38678,-2.2954 -1.16033,-1.7598 -0.38678,-1.6833 0.6962,-0.53559 v -0.6121 l -1.31504,-0.84165 -0.0774,-0.5356 1.23769,-0.6886 -0.92827,-0.84166 1.31504,-5.43244 2.63009,-1.22421 v -0.61211 l -0.8509,-1.07119 2.2433,-4.13172 h 1.46976 l 1.16032,-0.91816 -0.23205,-3.97868 2.39801,-3.44311 1.3924,-0.45907 -0.38678,-2.37191 z" style="fill-opacity:1;stroke:#000000;stroke-width:1.92333;stroke-dasharray:none;stroke-opacity:1;fill:#277f8e" />
    <path class="state" id="California" d="m 55.792217,282.06065 2.630085,3.97868 -1.082975,0.0765 -1.392399,-1.45376 z m 1.469753,-7.49831 1.3924,3.13703 2.011241,0.76514 0.541487,-0.45908 -1.005621,-1.91283 -2.011241,-1.83631 z M 41.868237,260.02481 v 1.83633 l 1.547109,0.91815 3.403639,-0.15302 0.773555,-0.76513 -2.398019,-0.15303 z m -4.563972,0.0765 2.55273,0.38257 1.082977,1.6833 h -2.939509 z m 37.05326,34.81355 -0.773555,-2.2954 0.154711,-2.2954 -0.309421,-6.04454 -1.3924,-3.67265 -0.928264,-1.07118 -0.464133,-1.14769 -5.414881,-6.58016 -2.784796,0.0765 -1.547109,-1.45376 0.85091,-1.37724 -0.541489,-2.831 -1.701819,-0.91816 -3.016862,-0.45907 -2.165953,-0.99467 -1.160332,-1.45376 -3.480995,-5.04987 -2.088597,-1.68328 -2.862152,-0.38258 -2.398019,-1.75981 -3.635706,-1.1477 -2.165952,-0.22953 -1.933887,-1.91284 0.154712,-2.14237 0.618842,-3.67263 1.392398,-3.90218 -1.082975,-1.22421 -3.094218,-7.19226 -2.088597,-2.83098 -0.309422,-2.2954 -1.237688,-1.75982 0.154712,-1.91283 -1.547109,-3.82567 -2.243308,-2.06585 0.464133,-5.43243 1.85653,-0.61211 1.392399,-2.37192 -0.309422,-2.44842 -0.773555,-0.68862 h -1.933887 l -1.933885,-2.52493 -1.160332,-2.67797 v -5.7385 l 0.928265,-3.21356 0.154711,-1.60678 1.933885,0.15303 -0.07736,1.22421 -0.618844,0.53559 v 1.91284 l 2.862152,2.44843 v -3.59614 l -1.082976,-2.60145 0.386778,-0.84164 -0.773555,-1.30073 2.165952,-1.1477 -1.469752,-2.29539 -1.082977,0.38256 -1.160333,2.9075 0.386778,0.99468 -0.618843,0.76514 -0.696199,-0.0765 -4.177195,-4.66731 0.541489,-4.28474 -0.85091,-2.98401 -5.028104,-9.79371 0.618843,-8.18693 1.779175,-2.75447 0.154711,-4.89685 -4.254549,-8.49297 0.232065,-3.97869 5.337526,-5.7385 1.315043,-1.83632 -0.07735,-1.07118 3.094219,-7.03924 0.07736,-6.4271 0.696199,-1.91284 51.131951,14.23148 -12.686293,48.27987 0.850909,2.67797 54.458227,80.33894 -0.69619,1.60679 1.00562,2.60146 1.08297,1.37723 0.92828,4.43777 1.77916,1.91284 0.30943,1.45374 -1.00562,0.99468 -3.71307,1.30071 -1.85653,2.75449 -1.23769,5.35593 -1.85652,2.44842 -1.23769,0.22954 -0.85091,5.27942 0.85091,1.22421 1.3924,0.15303 0.77356,1.22422 -0.61884,1.8363 -2.32068,1.6833 -1.70182,-0.0765 z" style="fill-opacity:1;stroke:#000000;stroke-width:1.92333;stroke-dasharray:none;stroke-opacity:1;fill:#fde725" />
    <path class="state" id="Colorado" d="m 291.88103,249.69552 -12.76363,-0.76513 -39.99277,-3.67265 -40.68896,-4.97336 8.89587,-67.56122 34.7326,4.36125 29.00829,2.60146 25.60465,1.83632 -1.08298,16.90944 z" style="fill-opacity:1;stroke:#000000;stroke-width:1.92333;stroke-dasharray:none;stroke-opacity:1;fill:#4ac16d" />
    <path class="state" id="Connecticut" d="m 677.80738,139.21033 0.30942,-0.84164 -2.47538,-9.41113 -0.0774,-0.22954 -11.52597,2.60145 v 0.53559 l -0.69618,0.22955 -0.38679,-0.5356 -8.12232,1.83632 2.16594,12.47166 1.39242,1.1477 -2.70746,2.60146 1.31504,1.68329 4.1772,-3.4431 1.31505,-0.99467 h 0.61884 l 1.85654,-2.37191 1.08297,0.0765 2.24331,-0.84164 h 1.62446 l 4.09983,-2.06586 2.16597,-0.68863 0.77354,-0.76513 1.16035,0.38257 z" style="fill-opacity:1;stroke:#000000;stroke-width:1.92333;stroke-dasharray:none;stroke-opacity:1;fill:#1fa187" />
    <path class="state" id="Delaware" d="m 638.12403,175.70718 -1.23769,0.22953 -1.16033,0.84165 -0.92827,1.60679 5.87902,20.73509 8.43174,-1.75981 -1.70182,-5.81501 -0.85091,0.38258 -2.55273,-1.98936 -0.38678,-1.30073 -1.39239,-0.76513 -0.15471,-2.83099 -1.62447,-1.68328 -0.8509,-0.61212 -0.92828,-0.84163 -0.30941,-2.44843 0.23207,-1.60679 0.77355,-1.68329 z" style="fill-opacity:1;stroke:#000000;stroke-width:1.92333;stroke-dasharray:none;stroke-opacity:1;fill:#1fa187" />
    <path class="state" id="Florida" d="m 583.58843,342.8887 -3.09421,-0.53559 -1.31504,-0.68862 -1.70182,1.07118 v 1.91283 l 1.08297,1.60679 -0.38677,3.29006 -1.62447,0.45909 -0.77355,-0.84165 -0.46414,-2.44843 -38.75508,2.52494 -2.55272,-4.5908 -37.74946,3.90218 -0.38678,2.21889 1.93389,2.14237 1.31504,0.53559 0.6962,0.91816 -0.30942,5.58547 -0.85092,0.45907 0.38679,0.30606 0.77355,-0.22953 0.54149,-0.61211 8.12232,-2.06586 7.1167,-0.38257 6.2658,1.45376 6.5752,3.82567 1.85653,0.61209 1.70183,1.53027 -0.0774,2.06586 h 1.85654 l 1.46975,-0.76513 1.93389,0.0765 1.54711,-0.61211 2.24331,-1.53026 2.39802,-2.21888 0.85091,-0.30606 0.46413,0.38256 h 1.08297 l 0.38678,-0.6121 -0.38678,-0.91816 -0.46412,-0.45908 0.1547,-0.61211 1.5471,-0.84164 3.86778,-0.30605 0.61885,0.76513 0.77356,0.0765 1.77917,0.76512 2.32065,1.37724 0.92827,1.30073 0.85092,0.91816 2.16595,1.07119 v 1.83632 l 2.16595,1.45374 0.77355,0.0765 1.23769,1.07118 0.54149,1.22422 0.77355,0.15302 0.61885,1.60679 0.54149,0.45908 0.77355,-0.84166 2.24332,0.0765 0.38676,1.07118 0.85092,0.68862 v 0.99467 l 2.2433,1.6833 0.15471,7.34527 -1.39239,4.43777 0.77356,0.91816 -0.15471,2.60145 -0.61885,1.07118 0.54148,0.91816 1.77918,1.75981 0.23207,1.1477 0.61884,0.76513 -0.30942,-1.45375 1.00562,-0.45908 0.61885,-2.75449 -2.32068,-0.91816 0.0774,-0.45907 2.01124,-0.30605 0.6962,1.98934 0.85092,0.45909 0.0774,-1.53027 0.85089,0.22955 0.46415,0.61209 -0.0774,0.5356 -2.24331,3.21355 -0.15471,0.84165 -1.31505,1.45376 v 0.84164 l 2.86216,2.90751 4.09983,6.04454 1.39241,1.60678 v 1.37725 l 2.16595,3.5196 1.77918,0.45908 0.54148,-0.91815 -1.62446,0.22953 -2.32067,-3.44309 0.15471,-1.07118 1.16034,-0.61211 v -1.14771 l -0.46414,-0.99466 0.6962,-0.68863 0.30943,0.68863 0.54149,0.38255 v 3.06054 l -0.92827,-0.45908 -0.61885,0.68861 1.08298,1.22423 0.77356,1.98934 0.92826,-0.45908 1.77918,0.91816 1.62446,1.68329 1.2377,3.90218 2.39801,3.67264 0.61885,-0.99468 2.16594,-0.38256 2.47537,0.99467 0.23208,1.30072 2.55272,2.90751 0.0774,0.84164 1.70182,2.06587 -0.5415,0.38256 v 2.06585 l 2.0886,1.0712 h 1.16034 l 2.0886,-1.37725 1.16033,0.22955 0.85091,0.30605 1.77917,-1.30073 0.15471,-0.53559 0.92826,0.22954 1.85654,-1.30073 1.00563,-1.7598 -0.5415,-2.44843 -0.15471,-0.99467 0.85091,-3.06053 0.46413,-0.15303 0.46414,1.22421 0.61884,-1.37723 -0.61884,-5.50896 -0.30943,-8.0339 -0.77354,-5.2029 -0.5415,-1.30073 -5.10545,-8.49297 -4.02248,-6.96271 -1.70184,-2.52493 -1.00561,-2.75448 -0.15471,-2.60146 0.6962,-0.22953 v -0.68862 l -0.85091,-1.68331 -3.09422,-3.06052 -5.87902,-7.42179 -4.40925,-7.95738 -3.32628,-8.18691 -0.46415,-2.831 -0.92827,-0.76515 -0.38676,-2.90749 z m 7.11672,102.91037 1.31503,-0.0765 -0.54149,-0.76514 z m 5.64693,-0.84166 v -0.53557 l 1.2377,-0.15304 2.86215,-2.52493 1.16033,-0.4591 1.85653,-0.6886 0.23207,0.99466 1.31504,0.61211 -2.01125,0.91816 h -1.85652 l -3.01687,1.91284 z m 13.30515,-5.815 -2.32066,1.07118 -0.77356,0.99468 0.85092,0.0765 z m 2.9395,-2.21888 -0.85091,0.22953 -1.08297,1.53027 0.8509,-0.15302 1.16034,-1.22422 z m 6.4205,-12.01259 -1.31504,4.28474 -0.61884,0.76514 -0.77356,1.98934 -0.92826,1.22421 -0.5415,1.30072 -1.46974,1.6833 v 0.68862 l 2.0886,-2.14236 1.85653,-2.67797 0.46412,-1.53027 1.62447,-3.74916 z" style="fill-opacity:1;stroke:#000000;stroke-width:1.92333;stroke-dasharray:none;stroke-opacity:1;fill:#fde725" />
    <path class="state" id="Georgia" d="m 591.40133,319.16958 v 1.07119 l -3.24892,4.74383 -0.92827,0.15302 1.16033,0.38256 v 1.53027 l -0.69619,0.84165 -0.46414,4.5908 -1.77918,4.74382 0.38679,1.53026 0.54149,3.90218 -2.78481,0.22954 -3.09421,-0.53559 -1.31504,-0.68862 -1.70182,1.07118 v 1.91283 l 1.08297,1.60679 -0.38677,3.29006 -1.62447,0.45909 -0.77355,-0.84165 -0.46414,-2.44843 -38.75508,2.52494 -2.55272,-4.5908 -0.54148,-1.68329 -1.16035,-1.1477 -0.38678,-1.07118 0.46414,-4.82034 -1.85652,-4.36126 0.38677,-1.98934 0.23206,-2.83099 1.70183,-2.90751 -0.15471,-0.84165 -1.31505,-0.76513 v -2.44841 l -1.3924,-1.45376 -2.2433,-4.66732 -9.97886,-35.04309 17.7144,-2.21888 16.55406,-2.29539 -0.0774,1.45375 -1.46976,0.76513 -1.08297,2.44843 0.15471,0.99468 4.71867,2.9075 2.01125,-0.22955 2.39801,3.06053 0.30943,1.30073 3.24893,3.90218 2.01123,1.30072 1.08298,0.15303 1.70183,1.22423 0.85091,1.68328 1.5471,1.22421 1.3924,0.38257 2.0886,2.06586 0.0774,1.07118 2.01123,2.14237 3.86778,1.75981 2.7848,5.12638 0.23206,2.06587 3.01686,1.60677 1.93389,3.67265 0.61884,2.3719 3.24894,0.30606 z" style="fill-opacity:1;stroke:#000000;stroke-width:1.92333;stroke-dasharray:none;stroke-opacity:1;fill:#277f8e" />
    
    <path class="state" id="Hawaii" d="m 247.32431,425.98213 -0.15471,2.44842 1.31503,1.45375 0.0773,0.91816 -3.71306,3.44311 -0.0773,0.91815 1.46973,2.44843 1.31504,3.21355 v 1.98935 l -0.38676,0.91816 0.0773,2.60145 3.17157,1.60678 0.85091,0.84164 0.92827,-0.84164 1.62447,-2.75448 3.48099,-2.21889 2.55273,-0.38256 1.93389,-0.76513 1.31503,-0.91816 2.47539,-2.67797 -2.16596,-0.84165 -1.08298,-1.07118 0.0774,-1.30072 -0.38678,-0.45909 h -1.54711 l 0.15472,-1.91283 -0.54149,-0.91816 -2.01124,-1.7598 -3.48101,-1.45375 -2.16594,-0.15303 -2.55273,-2.06586 -0.92827,-0.45908 z m -11.83539,-13.00727 -0.85091,1.1477 -0.0774,1.30074 2.0886,1.83631 1.46976,0.38256 0.46413,0.76514 0.30942,2.2954 2.78481,0.15302 4.09983,-1.98935 -0.0774,-1.91283 -1.08299,-0.38256 -2.70744,-1.98935 -1.39239,-0.22953 -2.24331,0.99467 -1.16033,-2.06585 z m -1.16034,8.79903 0.69622,-1.07118 1.93388,-0.22954 0.46413,1.37723 z m -5.41488,-6.65665 1.31506,3.06054 2.39801,-0.45908 0.23207,-1.53027 -1.08298,-1.14772 z m -3.17157,-5.12639 -0.85091,1.83632 h 3.86777 l 3.71307,1.2242 1.93389,-1.2242 0.1547,-1.1477 -3.71306,0.15303 z m -12.37686,-8.11041 -1.46976,1.60678 -2.24331,0.45907 0.61885,1.68331 1.70181,2.14236 0.0774,0.76513 1.62447,-0.22953 1.77917,0.0765 1.31505,0.91817 2.70744,-0.61211 v -0.53559 l -0.77356,-0.6121 -0.38678,-1.60678 -0.61884,-0.22954 -0.38678,0.76512 -0.92826,-0.99467 0.15471,-1.07119 -1.3924,-2.52493 -0.85091,-0.53559 z m -24.59903,-9.48764 -3.24894,2.21888 0.15471,1.7598 1.85653,0.91816 1.46976,0.99468 2.08859,0.30606 2.01125,-1.6833 -0.15471,-1.45376 0.61884,-1.30072 v -1.07118 l -0.77355,-0.68862 z m -8.3544,3.67263 -0.23206,0.91816 -1.46976,0.68863 -0.46413,1.37723 0.77356,0.61211 0.85091,-1.14771 1.46974,-0.45908 0.30943,-1.98934 z" style="fill-opacity:1;stroke:#000000;stroke-width:1.92333;stroke-dasharray:none;stroke-opacity:1;fill:#fde725" />
    <path class="state" id="Idaho" d="m 129.97609,142.4239 -18.87472,-4.13172 6.57521,-28.53946 2.24331,-4.43777 0.30941,-1.60678 0.61884,-0.68862 -0.69619,-1.53026 -2.24331,-0.91815 0.15472,-3.213568 3.0942,-4.437768 1.93389,-0.6121 1.23769,-1.759809 -0.0773,-1.224211 1.3924,-1.224213 2.47536,-4.20823 3.24894,-3.672638 -0.38678,-2.448426 -2.70744,-2.371911 -1.23769,-2.754478 0.85092,-3.290071 -0.54149,-3.060533 9.82414,-42.923951 10.98448,2.295397 -3.71306,16.832924 2.86215,5.661983 -1.23769,3.672637 2.78478,3.672638 1.46977,0.535592 3.01686,6.350604 v 1.606779 l 1.77917,2.295397 h 0.6962 l 1.08298,1.60678 h 2.47537 v 1.224211 l -5.49223,13.007259 -0.38679,3.137045 1.08299,0.382567 1.23768,1.989345 2.16595,-1.071187 2.7848,-1.836318 1.46975,1.453752 0.38678,1.912833 -0.38678,2.448424 1.93389,7.421795 2.01124,2.67796 1.77917,1.07118 0.30942,2.2954 v 3.13704 l 1.77918,1.75981 1.2377,-1.75981 5.33752,1.22422 1.62446,-0.91816 6.96199,1.30073 2.16596,-2.52495 1.3924,-0.45908 0.92826,1.37724 1.23768,3.13705 0.6962,0.0765 -6.57521,41.92928 -37.05326,-6.2741 z" style="fill-opacity:1;stroke:#000000;stroke-width:1.92333;stroke-dasharray:none;stroke-opacity:1;fill:#440154" />
    <path class="state" id="Illinois" d="m 484.41876,205.7769 -0.77355,3.97868 v 1.53027 l 1.85652,2.67796 v 0.53561 l -0.23207,0.6886 0.6962,1.45377 -0.23206,1.83632 -1.23769,1.37723 -1.00562,3.21355 -2.93951,4.05522 -0.0773,5.35592 h -0.77356 l 0.69621,1.45376 v 0.68861 l -1.70184,2.06586 0.0774,0.84165 1.16033,1.68329 -0.0774,0.68862 -2.86215,0.45907 -0.46413,0.91816 -0.92826,-0.45907 -0.77356,0.38257 -0.30942,2.52494 1.31504,1.37723 -0.30942,1.83633 -1.16033,0.22953 -5.33753,-2.29539 -3.09421,2.83099 0.23205,1.37723 h -2.16594 l -1.08298,-1.1477 -1.3924,-2.90749 v -1.45377 l 0.61884,-0.45907 0.0774,-0.99467 -1.31504,-1.45377 -0.69621,-1.91281 -2.08859,-3.13705 -3.71306,-0.99468 -5.7243,-5.43244 -0.30943,-1.83632 2.16596,-5.81501 -0.30943,-1.45375 0.92828,-0.84164 v -0.99469 l -2.16596,-1.14769 -2.32066,-0.53559 -2.63009,0.91816 -1.00562,-1.7598 0.46412,-1.45377 -0.54147,-1.83631 -6.65257,-6.42711 -1.70183,-1.14771 -1.93387,-4.51428 -0.92828,-4.13171 1.08298,-2.831 0.54149,-0.53559 0.0774,-1.7598 -0.5415,-0.68862 0.77356,-1.14771 1.39241,-0.45908 0.69618,-0.22953 0.77356,-0.91816 v -1.83632 l 1.31503,-1.83632 0.3868,-0.38256 0.0774,-2.67797 -0.69621,-1.07119 -0.77356,-0.22953 -0.85091,-1.22421 0.77355,-3.06055 2.32067,-0.61209 h 1.85653 l 3.24894,-1.37725 1.31504,-1.68329 0.0774,-1.83631 0.85091,-0.99467 1.00563,-2.44844 -0.0774,-1.98934 -2.16595,-2.67796 h -0.92827 l -0.6962,-0.84165 0.1547,-1.22422 -1.31504,-1.30072 -1.93388,-0.99468 0.38678,-0.45907 35.50615,-2.14238 0.0774,3.51961 2.63009,3.51962 0.92826,3.13705 1.2377,2.44841 z" style="fill-opacity:1;stroke:#000000;stroke-width:1.92333;stroke-dasharray:none;stroke-opacity:1;fill:#440154" />
    <path class="state" id="Indiana" d="m 488.82801,166.67861 -3.94513,1.75979 -3.63569,-1.07118 3.17157,38.40968 -0.77355,3.97868 v 1.53027 l 1.85652,2.67796 v 0.53561 l -0.23207,0.6886 0.6962,1.45377 -0.23206,1.83632 -1.23769,1.37723 -1.00562,3.21355 -2.93951,4.05522 -0.0773,5.35592 h -0.77356 l 0.69621,1.45376 0.85091,0.61211 0.46413,-0.76515 -0.54149,-1.30072 3.55835,-0.38256 0.1547,0.91816 0.85092,0.15302 0.30943,-0.68862 -0.46414,-0.99467 0.23206,-0.61211 1.00562,0.61211 1.31505,-0.30605 1.31504,0.45908 2.63009,1.60678 1.39238,-2.14238 2.70746,-1.68329 2.32066,2.52495 1.23768,-1.60679 0.23207,-2.06586 2.93951,-1.7598 0.15471,0.99467 1.46975,0.91816 2.32067,-0.15303 0.92826,-0.53559 0.0774,-2.60144 1.93389,-2.831 3.55834,-3.36658 -0.0774,-1.30073 0.92827,-2.90751 1.70182,0.76513 5.18282,-3.4431 -0.30942,-1.30072 -1.16033,-1.60679 0.77354,-1.45374 -5.10545,-43.76559 -0.0774,-1.0712 -25.06315,2.60145 z" style="fill-opacity:1;stroke:#000000;stroke-width:1.92333;stroke-dasharray:none;stroke-opacity:1;fill:#440154" />
    <path class="state" id="Iowa" d="m 432.90003,142.34738 1.62446,1.22422 0.46414,0.84164 -1.23769,2.52494 -0.0774,1.91283 1.54712,4.20824 2.08859,1.1477 2.55274,0.53558 1.00562,2.14238 -0.38679,0.45907 1.93389,0.99468 1.31505,1.30072 -0.15471,1.22422 0.6962,0.84165 h 0.92826 l 2.16595,2.67796 0.0774,1.98934 -1.00563,2.44844 -0.85091,0.99467 -0.0774,1.83631 -1.31504,1.68329 -3.24893,1.37725 h -1.85652 l -2.32067,0.61209 -0.77356,3.06055 0.85092,1.22421 0.77354,0.22953 0.6962,1.07119 -0.0774,2.67797 -0.38678,0.38256 -1.31503,1.83632 v 1.83632 l -0.77356,0.91816 -0.6962,0.22953 -1.3924,0.45908 -0.77355,1.14771 0.54148,0.68862 -0.0774,1.7598 -0.54149,0.53559 -1.16033,-0.61211 -0.85091,-0.84163 -0.46414,-1.22422 -1.31504,-0.99467 -11.06183,0.61211 -21.04068,0.91815 -20.03506,-0.0765 -1.3924,-3.36658 0.54149,-1.68329 -0.61884,-2.52494 0.15471,-2.21889 -1.00562,-0.5356 -0.30943,-4.66731 -2.16595,-3.82566 -0.15471,-2.83098 -1.70182,-3.29009 -1.00562,-2.83098 v -1.07119 l -0.46413,-1.30073 v -1.7598 l -0.38678,-0.68863 -0.54148,-1.30071 -0.23207,-0.99468 -1.00562,-0.91815 0.77354,-3.29008 1.31506,-3.90217 -0.54149,-1.53028 -1.00563,-0.30605 -0.30942,-1.2242 0.77356,-0.38257 0.0774,-0.84165 -1.00563,-1.1477 0.0774,-1.22421 1.70181,0.0765 h 21.81423 l 28.08004,-0.68861 14.3881,-0.53561 z" style="fill-opacity:1;stroke:#000000;stroke-width:1.92333;stroke-dasharray:none;stroke-opacity:1;fill:#440154" />
    <path class="state" id="Kansas" d="m 357.2464,200.88005 -33.80434,-0.91816 -27.84796,-1.53026 -3.71307,51.26389 52.36966,2.21888 47.96036,0.0765 -0.38677,-36.8029 -2.47537,-0.53557 -2.01124,-3.59614 -1.93389,-1.91283 0.38678,-1.75981 2.08859,-1.98934 0.0774,-0.91816 -1.16034,-1.60678 -0.6962,0.76513 -1.54711,-0.45908 -2.2433,-2.29539 z" style="fill-opacity:1;stroke:#000000;stroke-width:1.92333;stroke-dasharray:none;stroke-opacity:1;fill:#4ac16d" />
    <path class="state" id="Kentucky" d="m 537.4846,249.08341 -15.85787,1.07119 -4.02249,0.61211 -13.45984,0.76514 -2.01124,0.6121 -17.48234,1.53026 -0.54149,-0.45908 h -2.86214 l 0.92825,2.44843 -0.46412,0.68862 -18.02382,1.14769 0.77355,-2.06585 1.08297,0.68862 0.54149,-0.30605 0.92827,-3.13705 -0.77355,-0.76514 0.77355,-1.53027 0.1547,-0.68861 -1.00562,-0.61211 -0.23205,-1.37723 3.09421,-2.83099 5.33752,2.29539 1.16034,-0.22953 0.30942,-1.83633 -1.31504,-1.37723 0.30942,-2.52494 0.77356,-0.38257 0.92826,0.45907 0.46413,-0.91816 2.86215,-0.45907 0.0774,-0.68862 -1.16033,-1.68329 -0.0774,-0.84165 1.70184,-2.06586 v -0.68861 l 0.85091,0.61211 0.46413,-0.76515 -0.5415,-1.30072 3.55836,-0.38256 0.1547,0.91816 0.85092,0.15302 0.30942,-0.68862 -0.46413,-0.99467 0.23206,-0.61211 1.00562,0.61211 1.31505,-0.30605 1.31504,0.45908 2.63008,1.60678 1.39239,-2.14238 2.70746,-1.68329 2.32066,2.52495 1.23768,-1.60679 0.23207,-2.06586 2.93951,-1.7598 0.15472,0.99467 1.46974,0.91816 2.32067,-0.15303 0.92826,-0.53559 0.0774,-2.60144 1.93389,-2.831 3.55835,-3.36658 -0.0773,-1.30073 0.92827,-2.90751 1.70182,0.76513 5.18281,-3.4431 -0.30941,-1.30072 -1.16035,-1.60679 0.77355,-1.45374 1.00562,0.38256 1.70183,0.0765 1.46976,-0.61212 2.2433,0.91817 1.70183,2.60144 v 0.76514 l 3.17157,0.53558 1.77917,-0.15302 1.46976,1.60678 1.70182,0.15302 v -0.76514 l 1.46974,-0.6121 2.32067,0.6121 0.92827,0.61211 1.00561,-0.53561 h 0.6962 l 0.46414,-1.30071 2.63008,-1.37724 0.38678,0.6121 0.61885,2.21889 2.70743,1.07119 0.92827,1.60678 -0.0774,0.84163 0.46415,0.76514 -0.46415,2.75448 1.46977,1.22421 0.61883,0.84165 0.77357,0.45907 -0.0774,0.68863 3.40364,4.28473 h 1.08297 l 1.16034,1.37725 0.92826,0.22954 1.08297,-0.0765 -3.79041,5.04988 -2.2433,0.76514 -2.32067,2.29539 -0.30942,1.6833 -1.62446,0.99466 -0.0774,1.30074 -1.08297,1.07119 -1.39241,0.38256 -0.38677,1.45375 -0.77356,0.30605 -5.33752,3.21356 z m -75.80834,8.64601 -0.54149,-0.5356 0.15471,-0.76513 h 0.8509 l 0.5415,0.5356 -0.23207,0.76513 z" style="fill-opacity:1;stroke:#000000;stroke-width:1.92333;stroke-dasharray:none;stroke-opacity:1;fill:#a0da39" />
    <path class="state" id="Louisiana" d="m 468.17411,364.08288 -0.92826,-1.37723 0.23206,-0.99467 -3.71306,-5.20291 0.6962,-3.51961 0.77355,-1.0712 0.0774,-1.07118 -27.84796,1.53027 1.31504,-9.10508 1.85653,-3.67264 4.64133,-6.42712 -1.3924,-1.91284 h 1.5471 v -2.52493 l -1.85652,-1.91283 0.38678,-1.30073 -0.92827,-0.76513 -1.23769,-5.43245 0.46414,-1.07118 -40.4569,0.99468 0.38677,15.22614 0.5415,2.60145 2.01124,2.14237 0.54148,4.13172 2.93951,3.51961 0.61884,3.29008 h 0.77356 l -0.0774,5.58546 -2.55275,4.89686 1.00563,1.7598 -1.00563,1.1477 0.5415,2.2954 -0.0774,3.29006 -1.70183,2.67797 -0.0774,0.6121 -1.31504,0.91817 0.77355,1.37723 0.92827,0.84165 1.23769,-0.99467 4.09983,-0.68862 4.71869,-0.0765 7.42612,2.90751 6.18844,0.76514 1.16033,-1.0712 1.39239,-0.15302 3.71306,1.6833 1.23769,-0.30606 0.85091,-1.1477 -3.24892,-1.37723 -1.70183,0.76512 -0.85091,-0.15302 -1.08297,-1.53026 2.55273,-1.6833 1.23768,-0.0765 v 1.30073 l 1.16034,-0.0765 2.63009,-0.22954 0.30942,1.7598 0.8509,0.30605 0.46415,1.45376 3.71304,0.76513 1.31505,1.22422 v 0.53558 h -0.92826 l -1.16033,1.30074 1.31503,0.91815 4.1772,0.76514 2.0886,2.14237 3.40364,-0.76513 -2.86215,0.15302 -0.0774,-0.45907 2.16595,-0.5356 0.15472,-1.37723 0.92826,-0.22956 v -1.07118 l 0.85091,0.0765 v 1.22421 l 1.93389,0.0765 0.61884,-1.45375 0.6962,0.22954 0.15471,1.91284 0.92826,0.15302 -1.3924,1.53027 2.01125,-0.68862 1.54711,-0.84165 2.2433,-2.52493 h -0.54149 l -1.00562,0.91815 -0.30942,-0.0765 -0.38677,-0.61212 0.69619,-0.91816 v -1.7598 l 0.85092,-0.6121 0.54148,0.53559 0.77357,-0.6121 0.77354,-0.0765 0.46414,0.99467 -0.46414,1.45375 h 1.85653 l 3.94514,1.30073 0.38677,0.99467 1.2377,1.07118 2.16594,0.0765 1.00562,0.53558 1.39241,-0.76514 0.69619,-1.30071 v -1.30073 h -1.08298 l -0.92826,-1.07118 -0.85091,-0.84165 -2.47538,-0.68862 -2.01124,0.15302 -3.24893,-1.83631 v -1.75982 l 1.00563,-0.76512 1.85652,0.45907 -2.39801,-1.22421 0.1547,-0.61211 h 2.78481 l 2.01123,-2.67795 -2.01123,-1.37725 0.61884,-1.14769 -0.92827,-0.61211 h -0.61885 l -1.54711,1.60678 v 1.60678 l -0.46412,0.53558 -0.85092,-0.0765 -1.23768,-1.07119 h -1.00563 v -1.1477 l 0.46414,-0.5356 0.61884,0.5356 1.31504,-1.22422 0.54149,-1.22421 0.61884,-0.22953 z m -7.96762,-2.06586 1.46977,0.76514 0.61883,0.84164 1.93388,0.0765 1.16034,0.6121 0.15471,1.07119 -0.30942,0.45908 -0.6962,-1.1477 -1.08297,0.91815 -0.69619,1.0712 -2.16596,0.6121 -1.23769,0.0765 -2.86216,-0.76513 0.0774,-1.30072 1.54711,-1.53027 0.85092,-1.83631 z m -3.63569,0.91816 v 0.84165 l -1.3924,1.53026 h -0.92828 v -1.68329 l 1.2377,-1.1477 z" style="fill-opacity:1;stroke:#000000;stroke-width:1.92333;stroke-dasharray:none;stroke-opacity:1;fill:#365c8d" />
    <path class="state" id="Maine" d="m 678.9677,100.80068 0.46415,3.06052 2.47536,1.53028 0.61884,1.68328 1.77919,1.07119 1.08298,-0.22955 0.77355,-2.2954 -0.61885,-2.21888 1.23768,-0.68862 0.38679,-2.14236 -0.46414,-0.994675 2.55274,-1.453754 -1.70183,-1.759804 0.69621,-1.836319 1.08297,-1.683289 0.38677,2.448419 1.23769,-1.530269 1.00562,0.688624 0.92827,-0.6121 v -1.300734 l 2.47537,-0.99467 0.23207,-2.218885 1.93388,-0.153027 2.0886,-2.830991 v -0.535594 l -0.6962,-0.382566 -0.0774,-2.524939 0.46412,-0.841646 0.15471,1.224213 0.77355,-0.382567 -0.15471,-2.448424 -0.69619,0.22954 -0.0774,0.918158 -0.92827,-1.071186 0.6962,-1.071186 0.46414,0.07651 0.8509,-0.306054 0.38678,2.142371 1.54711,-0.229539 2.24331,0.535594 v -0.765134 l -0.85091,-0.918159 1.00562,0.07652 0.0773,-1.759805 0.46413,0.612105 0.23207,1.453753 1.62446,1.147699 0.1547,-0.765133 0.69621,-0.153027 -0.23205,-0.612106 0.61883,-0.45908 -0.0774,-1.224211 -1.23769,-0.153028 -1.54709,0.535594 1.08297,-1.224213 0.54148,-0.612106 1.00562,-0.153027 0.30943,0.994672 1.31504,1.224213 0.30942,-1.60678 1.77917,-0.918158 -0.6962,-0.994673 0.0774,-1.300727 0.85091,0.382567 h 0.54149 l 1.31504,-1.071185 0.30941,-1.759806 1.70184,0.22954 0.0774,-0.535592 0.15471,-1.224213 0.38678,1.071186 1.16033,-0.765134 1.77917,-3.137043 -0.0774,-1.683293 -1.08298,-1.530265 -2.32066,-2.448426 h -1.46976 l -0.61884,1.683293 -2.2433,-2.2954 0.23206,-0.612105 v -1.1477 l -1.23768,-3.443097 -0.61885,-0.153028 -0.54149,0.306054 h -3.71305 l -0.23208,-2.754478 -6.26579,-19.893454 -5.64695,-2.830992 -2.24331,-0.07652 -5.18281,5.049878 -2.0886,-0.765133 -0.77355,-2.984018 h -2.0886 l -5.33753,14.92009 0.5415,4.743824 -1.31504,1.836318 -0.30943,3.519612 1.00562,2.830991 0.61885,0.153026 v 1.224213 l -1.23769,3.443098 -1.16033,1.071185 -1.00563,1.683292 -0.30942,5.968037 -1.85653,-0.765133 -1.16033,0.306053 z m 26.76499,-18.898786 -0.77355,0.612107 v 0.994673 l 0.54149,-0.612107 0.69619,0.612107 0.30942,-0.382567 0.85092,0.153027 -0.77356,-0.612106 0.30943,-0.612107 z m -1.31504,1.989347 -0.77356,0.841645 0.38679,0.306053 -0.0774,0.765133 h 0.85092 v -1.377239 z m -2.32066,-1.224213 0.69619,0.994672 0.77356,0.382566 0.23206,-0.765132 v -1.37724 l -1.00562,-0.535593 -0.30942,0.91816 z m -0.77356,3.825663 -1.31504,-1.300726 1.23769,-1.836319 0.61883,0.229541 0.15473,0.841646 0.77354,0.612106 v 0.841646 l -0.77354,0.765132 z" style="fill-opacity:1;stroke:#000000;stroke-width:1.92333;stroke-dasharray:none;stroke-opacity:1;fill:#46327e" />
    <path class="state" id="Maryland" d="m 638.66551,208.37834 v -1.30072 h -0.61883 v 1.37724 z m 9.12796,-2.98401 0.92827,-1.68328 0.0774,-1.91284 -0.46413,-0.45909 -0.54149,0.68863 -0.15472,1.60677 -0.61883,1.07119 -0.23207,0.84164 -3.55835,1.22422 -0.5415,0.6121 -1.00561,0.15304 -0.30943,0.68861 -1.00561,0.45908 -0.23206,-1.91283 0.30942,-0.53559 -0.61885,-0.38257 0.1547,-1.1477 -1.23768,0.76512 v -1.53025 l 0.92826,-0.22953 -1.46974,-0.30607 -0.54149,-0.6121 0.30942,-0.99467 -0.61885,-0.45909 -0.54149,1.22422 0.38679,0.6121 -0.54149,0.45908 -0.85092,0.38258 -1.5471,-0.76515 -0.15472,-0.91815 -0.77355,-0.84165 -1.08297,-1.30072 1.16033,-0.61212 -0.77355,-0.45907 v -0.68861 l 0.46412,-0.76514 1.31505,-0.22955 -1.08298,-0.45907 -0.0774,-0.5356 -1.00562,-0.0765 -0.30941,0.84165 -0.46414,0.22953 0.0774,-2.60144 0.77356,-0.76513 0.61883,0.53559 0.0774,-1.22422 -0.77355,-0.68861 -0.69619,0.84164 -0.77357,1.07119 -0.46412,-0.76513 0.15471,-1.83632 0.69619,-0.76514 0.69621,0.68863 0.92826,-0.5356 -0.30941,-1.30072 -0.77356,0.76513 -0.6962,-1.60679 -0.15471,-1.30071 0.85091,-1.83632 0.85091,-1.07119 1.08298,-0.15303 -0.38679,-0.6121 0.38679,-0.45909 -0.23207,-0.53558 0.15471,-1.60679 -1.16034,0.30605 -0.61884,0.84165 0.77356,0.99467 -2.01124,2.75448 -0.69621,-0.30605 -0.54148,0.68862 -0.46414,1.68328 -1.39239,0.38258 1.00562,0.45908 1.00562,0.99467 -0.15471,0.5356 0.69619,0.91816 -0.85091,0.76513 0.38679,0.22953 -0.38679,0.99468 v 1.60677 l -0.38677,0.99467 0.6962,0.84165 0.54148,2.60146 1.00563,1.07118 1.23768,1.0712 0.30943,2.14236 1.23768,1.53027 0.30942,1.07118 v 0.76514 h -0.54148 l -1.16034,-0.91816 -0.30942,0.15302 -0.92827,-0.15302 -1.31504,-1.0712 -1.08297,-0.22953 -0.77355,0.38257 -0.92828,-0.22954 -0.30942,0.15303 -1.31503,-0.61211 -0.77356,-0.76514 -0.77356,-0.99467 -0.46412,-0.15302 -0.61885,0.5356 -1.23768,0.99466 -0.85091,-0.61211 -0.30943,-1.75981 0.61885,-1.60677 -0.23207,-0.38257 0.23207,-0.30605 -0.54149,-0.76514 0.77355,-0.0765 0.77356,-0.68862 0.30942,-1.37724 1.31505,-1.98934 -2.01125,-1.37723 -0.77356,1.30072 -0.46413,-0.45908 h -0.77355 l -0.46413,-0.0765 -0.30943,-0.30606 0.0773,-0.38256 -1.31505,-0.45908 -0.61882,0.22954 -0.92827,-0.0765 -0.5415,-0.5356 -0.38677,-0.15302 -0.15471,-0.5356 0.46413,-0.61211 v -0.68862 l -0.92827,-0.15302 -0.77354,-0.68863 -0.6962,0.0765 -1.23769,-0.22954 -0.6962,-0.30605 0.15471,-1.22422 -0.77356,-0.38256 -0.15472,-0.53559 H 609.812 l -0.61884,-0.91816 0.1547,-0.76513 -2.01124,0.30605 -1.70182,-1.22421 -1.08298,0.22953 -0.69619,1.07119 h -1.00564 l -1.31504,2.21888 -2.55271,0.30605 -1.46977,-0.76513 -2.01123,2.90751 -1.70183,-0.22954 -2.39801,2.98402 -0.6962,1.22421 -1.3924,1.22421 -1.31505,-8.72251 46.80005,-9.02857 5.87903,20.73509 8.43172,-1.75979 v 4.0552 l -0.0774,2.37191 -0.77356,1.37725 z m -10.36564,-1.37723 -1.00562,0.68861 0.61884,1.37724 1.31505,0.61211 -0.30942,-1.22423 z" style="fill-opacity:1;stroke:#000000;stroke-width:1.92333;stroke-dasharray:none;stroke-opacity:1;fill:#46327e" />
    <path class="state" id="Massachusetts" d="m 698.22922,135.61422 h 2.63007 l 0.6962,-0.45908 0.0774,-0.99468 -1.46974,-1.37723 0.30941,0.76513 -1.16033,1.14771 h -1.77918 l 0.0774,0.6121 z m -6.96199,1.37724 -0.92827,-0.45908 0.77355,-0.61211 0.46414,-1.60679 0.92826,-0.76512 0.61886,-0.15303 0.46412,0.68862 0.8509,0.15302 0.46413,-0.45907 0.38679,1.45374 -1.00563,0.22955 -2.16594,0.53559 z m -26.99706,-17.90411 14.2334,-2.9075 0.77356,-1.14771 0.23206,-1.30073 1.46976,-0.45907 0.38678,-0.84165 1.31504,-0.84164 1.00562,0.22953 1.31504,2.52495 0.77355,0.30605 0.85092,-0.99468 0.61885,0.99468 v 0.84164 l -2.32067,1.83632 0.15471,0.61211 -0.6962,0.76512 0.30942,0.61211 -1.00562,0.22955 0.6962,0.91815 -0.61884,0.53561 0.46413,0.76512 0.6962,-0.15303 0.23206,-0.61209 0.85091,0.45907 h 1.3924 l 1.93389,1.98934 0.1547,1.98935 1.3924,0.0765 0.61886,0.84165 0.46412,1.53027 0.77355,0.53559 h 1.46977 l 1.46974,-0.0765 0.61885,-0.68862 1.23768,-0.91816 0.85091,-0.22953 -0.92825,-1.60678 -0.23207,0.68862 -1.16034,-2.75449 h -0.61884 l -0.30942,0.68862 -0.92826,-0.76513 1.00562,-0.84164 1.39239,0.30605 1.77917,1.60677 1.00563,2.06587 0.92826,2.52493 -0.77355,2.14238 v -1.37724 l -0.54149,-0.76514 -2.70744,1.75981 -0.6962,-0.22954 -1.23769,0.76515 -0.0774,0.91814 -1.70181,0.91816 -1.54711,1.60678 -1.54712,1.45376 h -0.92826 l 2.55273,-2.52494 0.38678,-1.45376 -0.38678,-0.45907 -0.23206,-0.99468 -0.6962,-0.0765 -0.0774,0.99467 -0.77355,0.91816 h -0.92827 l -0.23207,0.84166 0.30942,0.91816 -0.92826,0.84164 -0.85091,-0.15302 -0.30942,0.76512 -1.08298,-2.29539 -1.00562,-0.84164 -2.01124,-0.99469 -0.46413,-1.68329 h -0.61888 l -0.54149,-1.98935 -5.02811,1.53028 -0.0774,-0.22954 -11.52597,2.60145 v 0.53559 l -0.6962,0.22955 -0.38678,-0.5356 -8.12231,1.83632 -0.54149,-0.76513 0.38677,-11.47699 z" style="fill-opacity:1;stroke:#000000;stroke-width:1.92333;stroke-dasharray:none;stroke-opacity:1;fill:#1fa187" />
    <path class="state" id="Michigan" d="m 515.20622,162.85294 0.0774,1.0712 16.55407,-2.67797 0.38676,-0.91817 3.01688,-4.51427 v -3.29009 l 0.61884,-1.60676 1.70182,-0.61211 1.54711,-5.96804 0.77356,-0.38257 0.77355,0.45908 -0.15471,0.45909 -0.85091,0.61211 0.23207,0.68861 0.61884,0.30605 1.46975,-1.07118 0.30942,-7.49831 -1.23768,-1.75981 -0.92828,-2.83099 v -1.91284 l -1.77917,-3.36657 v -1.37724 l -0.92827,-2.52494 -1.77916,-2.2954 -2.24332,-0.76513 -3.71305,2.2954 -1.93389,3.51962 -0.15472,0.68861 -2.32066,2.67796 -1.16032,-0.15303 -2.24331,-2.14236 -0.0774,-2.60146 1.16034,-1.45375 1.54711,-0.15302 0.92827,-1.30073 0.15471,-3.06053 0.61884,-0.6121 0.85091,-0.0765 0.6962,-1.30072 -0.15471,-7.34527 -0.23208,-0.99467 -0.92826,-0.91816 -1.31503,-0.76513 -0.0774,-1.37725 0.5415,-0.45907 1.39239,0.61211 -0.23206,-1.30074 -1.46976,-2.06586 -0.54149,-1.2242 -0.85091,-0.84165 h -1.70182 l -6.26579,-2.218885 -1.08297,-1.300724 -2.39802,-0.229536 -0.92828,0.229536 -3.40362,-1.759814 h -1.08299 l 0.38679,0.765148 -2.08861,-0.07652 0.0774,0.45908 0.46412,0.45908 -1.93388,1.606784 0.0774,1.377241 1.16034,1.75979 1.16033,0.15303 v 0.45909 l -1.16033,0.38256 -1.62447,-0.0765 -2.16595,1.91284 0.0774,1.91283 0.30942,4.43777 -1.70182,2.60145 0.61884,-3.4431 -0.61884,-0.45908 -0.69621,4.05521 -0.77355,-1.75982 0.38677,-1.75979 -0.38677,-0.76515 0.46414,-0.99466 -0.46414,-0.84165 0.77355,-0.76512 v -0.91817 l -1.00562,0.45908 -1.00563,2.37191 -0.54147,0.53559 -1.00562,1.83633 -1.31504,-0.15303 -0.0774,0.91816 h -1.23769 l 0.15471,1.1477 0.15471,1.53026 -2.32066,0.91816 0.0774,0.99468 0.77356,1.30072 -0.0774,3.97869 -1.00562,3.36659 -1.31503,1.91283 0.92826,1.07118 0.61884,2.67796 -0.77355,1.91284 -0.15472,1.60678 1.31505,2.60145 1.93388,3.74914 0.92828,1.45377 1.23767,5.27941 -0.0774,6.73317 -0.69619,2.98402 -1.54711,2.44843 -0.6962,2.83098 -1.54712,2.2954 -0.92826,0.76514 z m -74.10652,-74.06485 2.32067,2.907505 13.15043,2.907508 1.08297,0.76513 3.09422,0.612109 0.54149,0.382565 2.16595,-0.153021 3.79042,0.612101 1.08297,1.147703 -0.77354,0.76513 0.61883,0.612101 2.93951,0.535594 0.92826,0.918165 0.0774,3.36658 -1.00562,2.14237 1.54711,0.0765 0.77355,-0.61211 0.6962,0.61211 -0.85091,2.37192 0.77356,1.22421 0.92825,0.22954 0.61886,-1.37725 2.24331,-3.51962 1.23768,-4.59078 1.77917,-1.53026 -0.38677,-1.22421 0.38677,-0.688624 0.77356,1.22421 -0.23207,1.683294 2.24332,-1.683294 0.1547,-1.759804 1.62447,0.45908 0.61884,-1.22421 0.54149,0.45908 -0.54149,1.147695 -0.77356,0.382573 -0.77355,1.53026 1.08299,1.37724 0.8509,-0.38256 -0.38678,-0.5356 0.77355,-1.147695 1.46976,-1.300733 h 0.61884 l 0.15471,-1.98934 1.54711,-1.377239 6.11107,-0.382565 1.46977,-2.371915 2.93951,-0.229541 2.9395,0.918167 3.24893,2.065854 0.54148,-0.153021 -0.15471,-2.677977 0.5415,-0.153023 3.48099,0.841643 1.16033,-0.153021 2.24331,-0.535599 1.31504,0.306053 1.3924,0.07653 v -0.841616 l -0.54149,-0.68862 -1.16034,-0.153026 -0.8509,-0.612106 0.38677,-1.071187 -0.61884,-0.22954 -2.01123,0.07651 -0.0774,-0.765131 0.85091,-0.612107 0.46413,0.612107 0.38678,-1.377241 -0.54149,-0.535591 0.54149,-0.153028 -1.08298,-0.994672 0.23207,-0.994673 0.0773,-1.453752 h -1.00561 l -1.16034,0.765133 -1.46974,0.07652 -0.38679,1.377238 -1.46974,0.153027 -0.23207,-0.918159 -1.70182,0.0765 -0.77356,0.918161 -0.54148,-0.07652 -0.15472,-0.612107 -2.01124,0.306054 -0.0774,-3.672637 0.77356,-1.530266 -0.54149,-0.07652 -1.39239,0.841646 h -1.70181 l -2.93951,2.065858 -4.79604,0.22954 -3.17159,0.612106 -1.46974,1.1477 -1.08298,0.994672 -1.93389,1.300725 -0.23206,0.612108 -0.46413,-1.300726 -1.00563,-0.459079 v 0.459079 l 0.54149,0.535592 v 0.994674 l -1.16032,-0.459081 h -0.46415 l -0.23206,0.918161 -1.54711,-1.453754 -1.00562,-0.153026 -1.00562,1.1477 -2.47537,-0.07652 -0.38679,-1.071185 -1.5471,-1.453753 -1.00562,-1.224213 v -0.535592 l -0.85091,-1.071186 -2.01124,-0.91816 -2.55273,-0.07651 -0.85092,-0.68862 h -1.08297 l -0.54149,0.306054 -1.70182,1.683291 -0.5415,0.841647 -0.77354,-0.535592 0.15472,-0.765134 0.61882,-1.606779 2.47539,-3.825665 0.61885,-0.153026 1.31504,-1.453752 0.54149,-1.224213 2.32066,-0.45908 0.61883,-0.459079 -0.0774,-0.765132 -0.38677,-0.382567 -3.481,0.153026 -1.5471,0.382567 -2.01125,0.91816 -0.92826,0.918159 -1.31504,1.683291 -1.39241,0.765133 -2.55272,2.601453 -0.30943,1.224212 -5.7243,3.519611 -3.09422,0.382565 -1.3924,0.306055 -1.77917,2.295399 -1.3924,0.535592 -3.40364,1.759805 z m 77.89694,2.907505 2.93951,0.07653 0.46413,-0.382556 -0.15472,-1.530267 -1.31503,-1.377239 -1.46976,0.07652 -0.0774,0.382567 0.85092,0.306054 -1.23769,0.612105 -0.23207,0.765133 -0.46413,-0.459079 -0.30942,0.612106 z m -58.09394,-32.059066 -1.77918,0.153027 -2.08859,1.453752 -5.49225,4.055204 0.61885,0.765133 1.3924,0.229539 2.16596,-1.530264 -0.85091,-0.382566 1.77917,-1.224214 h 0.77355 l 2.32067,-1.453753 -0.0774,-0.688619 z m 31.79308,48.050341 v 0.76514 l 1.62447,1.22421 -0.1547,-1.83633 z m -0.54148,2.14237 0.85091,0.0765 v 0.68862 h -0.77355 z m 16.55407,-16.297326 v 0.688615 l 0.61884,-0.153021 v -0.382574 z m 3.6357,2.371913 -0.0774,-0.841645 -1.23769,-0.153029 -0.46413,-0.30605 h -0.69621 l -0.30941,0.229535 0.69619,0.30605 0.85092,0.841654 z m -13.92398,0.91816 -0.0774,0.841644 -0.23206,0.535586 0.15472,1.683298 0.30941,0.229535 0.54148,0.0765 0.38679,-0.688623 0.0774,-1.224209 -0.23207,-0.459089 -0.0774,-0.841636 z" style="fill-opacity:1;stroke:#000000;stroke-width:1.92333;stroke-dasharray:none;stroke-opacity:1;fill:#440154" />
    <path class="state" id="Minnesota" d="m 361.5783,54.816193 -0.85091,2.142372 0.61885,1.071185 -0.23206,3.902178 -0.38679,0.841646 2.08859,6.962709 1.00563,1.912831 0.5415,10.71186 0.77355,2.065859 -0.30943,4.43777 2.24332,5.661985 0.23206,4.437768 -0.0774,1.606784 -0.0774,1.68328 -0.69619,1.53027 -2.39801,1.45375 -0.23207,0.91816 1.31504,1.91283 0.30942,1.37724 2.01123,0.45907 1.16034,1.45376 -0.15472,30.22275 h 21.81424 l 28.08004,-0.68861 14.3881,-0.5356 -0.8509,-3.4431 -0.15472,-2.2954 -1.70182,-2.29541 -2.16594,-0.53557 -4.02249,-2.75449 -0.46414,-2.52494 -4.87339,-2.37191 -0.1547,-0.99467 h -2.55274 l -1.70181,-1.98934 -1.54712,-0.99468 0.54149,-3.90217 -0.69619,-1.22422 0.38677,-4.13172 0.77356,-1.37723 -0.23207,-2.06586 -0.92826,-0.99467 -1.39241,-0.22955 v -1.30072 l 2.16596,-4.43776 4.56397,-2.984028 -0.30943,-9.946724 0.69621,0.306053 0.46412,-0.382567 0.0774,-0.841647 0.69619,-0.459079 1.08298,0.918159 0.54149,-0.07652 v 0 l -0.92826,-1.683292 3.32627,-2.371911 2.39802,-2.830992 1.2377,-0.612106 3.63569,-4.514284 4.8734,-4.43777 3.01686,-1.606779 4.8734,-2.065859 5.87901,-3.443098 -0.46413,-0.306053 -2.86215,0.535593 -2.16596,0.07651 -0.77355,-1.224211 -1.08297,-0.688621 -7.58085,0.91816 -0.77355,-2.142372 -1.23768,-0.07652 -1.31504,0.612107 -2.86215,2.371911 h -3.17158 l -1.62447,-0.765133 -0.23206,-1.300726 -3.01686,-0.612105 -0.46413,-1.224214 -0.54149,-0.994673 -0.77355,0.68862 -2.01125,0.0765 -7.65819,-4.208229 h -2.2433 l -0.61885,-0.535593 -2.39802,0.994672 -0.61885,0.994674 -2.55272,0.612106 -1.00561,-0.153026 v -1.300727 l -0.5415,-0.688619 h -4.56398 l -0.30942,-1.071187 h -2.01123 l -0.85091,0.306053 -1.85653,-1.300725 0.23207,-1.071187 -0.46414,-1.836318 -0.54149,-0.841646 -0.15472,-2.295399 -0.77354,-2.371912 -1.62447,-1.224212 h -2.24331 l 0.0774,6.121063 -23.90284,-0.306053 z" style="fill-opacity:1;stroke:#000000;stroke-width:1.92333;stroke-dasharray:none;stroke-opacity:1;fill:#440154" />
    <path class="state" id="Mississippi" d="m 484.65082,360.86932 -3.86777,0.0765 -1.85653,-1.1477 -6.11108,1.91284 -0.69621,-0.53561 -0.38677,0.15302 -0.0774,1.22422 -0.46413,0.0765 -2.01125,2.06585 -0.54148,-0.0765 -0.46414,-0.5356 -0.92826,-1.37723 0.23206,-0.99467 -3.71306,-5.20291 0.6962,-3.51961 0.77355,-1.07119 0.0774,-1.07119 -27.84796,1.53027 1.31504,-9.10508 1.85653,-3.67264 4.64133,-6.42712 -1.39239,-1.91283 h 1.54709 v -2.52494 l -1.85652,-1.91283 0.38678,-1.30074 -0.92827,-0.76512 -1.23768,-5.43245 0.46413,-1.07118 0.92826,-1.14769 0.38678,-2.29541 -1.16034,-1.7598 -0.38677,-1.68329 0.69619,-0.5356 v -0.6121 l -1.31504,-0.84164 -0.0774,-0.53561 1.23769,-0.6886 -0.92826,-0.84166 1.31504,-5.43244 2.63009,-1.22421 v -0.61211 l -0.85091,-1.07119 2.2433,-4.13171 h 1.46975 l 1.16034,-0.91816 -0.23207,-3.97869 2.39802,-3.4431 1.3924,-0.45908 -0.38678,-2.37191 29.62714,-1.98935 1.00562,1.53027 -1.00562,51.2639 3.40363,25.40241 z" style="fill-opacity:1;stroke:#000000;stroke-width:1.92333;stroke-dasharray:none;stroke-opacity:1;fill:#365c8d" />
    <path class="state" id="Missouri" d="m 431.66233,192.76963 -0.8509,-0.84163 -0.46414,-1.22422 -1.31504,-0.99467 -11.06183,0.61211 -21.04068,0.91815 -20.03505,-0.0765 1.00561,0.99467 -0.23207,1.07118 1.62447,2.831 3.01686,4.82034 2.24331,2.29539 1.54711,0.45908 0.6962,-0.76513 1.16034,1.60678 -0.0774,0.91816 -2.08859,1.98934 -0.38678,1.7598 1.93389,1.91284 2.01124,3.59613 2.47537,0.53558 0.38677,36.8029 0.15472,8.26344 30.24598,-0.5356 30.78746,-1.53026 1.2377,1.91283 v 1.68328 l -1.31505,1.14771 -2.16594,3.90218 8.6638,-0.61211 0.77356,-1.53027 0.92826,-0.38256 v -0.5356 l -0.92826,-0.84164 -0.46414,-0.76513 1.31505,0.15303 0.61884,-0.53561 -1.08298,-1.14769 1.08298,-0.38256 0.0774,-0.76514 -0.46413,-0.76513 v -0.99467 l -0.54149,-0.5356 0.15472,-0.76513 h 0.8509 l 0.5415,0.53559 -0.23208,0.76514 0.61885,0.53558 0.61885,-0.76513 0.77354,-2.06585 1.08299,0.68862 0.54148,-0.30605 0.92827,-3.13705 -0.77356,-0.76514 0.77356,-1.53026 0.1547,-0.68862 -1.00562,-0.61211 h -2.16594 l -1.08297,-1.1477 -1.39242,-2.90749 v -1.45376 l 0.61885,-0.45908 0.0774,-0.99467 -1.31505,-1.45376 -0.69621,-1.91283 -2.08859,-3.13704 -3.71306,-0.99468 -5.72431,-5.43244 -0.30942,-1.83632 2.16596,-5.81501 -0.30943,-1.45375 0.92828,-0.84164 v -0.99468 l -2.16596,-1.1477 -2.32067,-0.53559 -2.63008,0.91816 -1.00562,-1.7598 0.46413,-1.45376 -0.54149,-1.83631 -6.65256,-6.42712 -1.70182,-1.14771 -1.93389,-4.51428 -0.92827,-4.13171 1.08298,-2.831 z" style="fill-opacity:1;stroke:#000000;stroke-width:1.92333;stroke-dasharray:none;stroke-opacity:1;fill:#4ac16d" />
    <path class="state" id="Montana" d="m 193.17548,102.17791 44.32468,6.04455 39.45128,4.05521 1.54712,-15.838248 4.02248,-51.034364 -41.38517,-4.284744 -42.00402,-5.891521 -50.97723,-9.564163 -3.71305,16.832924 2.86215,5.661983 -1.23769,3.672637 2.78478,3.672638 1.46977,0.535592 3.01686,6.350604 v 1.606779 l 1.77918,2.295397 h 0.69619 l 1.08297,1.60678 h 2.47539 v 1.224211 l -5.49224,13.007259 -0.38678,3.137045 1.08298,0.382567 1.23768,1.989345 2.16594,-1.071187 2.78481,-1.836318 1.46975,1.453752 0.38678,1.912833 -0.38678,2.448424 1.93389,7.421795 2.01124,2.67796 1.77918,1.07118 0.30942,2.2954 v 3.13704 l 1.77917,1.75981 1.2377,-1.75981 5.33751,1.22422 1.62447,-0.91816 6.96199,1.30073 2.16596,-2.52495 1.3924,-0.45908 0.92826,1.37724 1.23768,3.13705 0.69621,0.0765 z" style="fill-opacity:1;stroke:#000000;stroke-width:1.92333;stroke-dasharray:none;stroke-opacity:1;fill:#a0da39" />
    <path class="state" id="Nebraska" d="m 313.46321,148.54496 29.39507,1.22421 2.63009,2.44842 1.31504,0.15303 1.62447,1.53027 1.3924,-0.0765 1.3924,-1.53026 1.16032,0.45907 0.77356,-0.5356 0.54148,0.38257 0.69622,-0.30604 0.54147,0.30604 0.6962,-0.30604 0.77356,0.38255 1.08297,-0.45908 1.54712,0.45908 0.46413,0.84165 4.71868,1.6833 0.92827,0.99466 0.69618,1.98936 1.39242,0.53558 1.16033,-0.15303 0.38676,0.68863 v 1.7598 l 0.46414,1.30073 v 1.07119 l 1.00563,2.83098 1.70181,3.29009 0.15471,2.83098 2.16596,3.82566 0.30942,4.66731 1.00562,0.5356 -0.15471,2.21889 0.61884,2.52494 -0.54149,1.68329 1.39241,3.36658 1.00561,0.99467 -0.23207,1.07118 1.62447,2.831 3.01686,4.82034 H 357.2464 l -33.80434,-0.91816 -27.84796,-1.53027 1.08298,-16.90944 -25.60465,-1.83631 2.86215,-33.81888 z" style="fill-opacity:1;stroke:#000000;stroke-width:1.92333;stroke-dasharray:none;stroke-opacity:1;fill:#440154" />
    <path class="state" id="Nevada" d="m 131.75528,229.4195 -2.63009,13.38983 -1.85654,2.21889 h -1.54711 l -0.92826,-2.06587 -2.86215,-1.07119 -2.70745,0.45909 -0.77356,10.40581 0.38679,3.74914 -0.38679,2.21889 -1.08297,2.29539 -54.458231,-80.33894 -0.85091,-2.67797 12.686294,-48.27988 36.357067,8.56949 18.87472,4.13172 18.02381,3.59611 z" style="fill-opacity:1;stroke:#000000;stroke-width:1.92333;stroke-dasharray:none;stroke-opacity:1;fill:#a0da39" />
    <path class="state" id="New Hampshire" d="m 669.37563,73.944513 -1.00562,0.07651 -0.77355,-0.841645 -1.46977,1.071186 -0.38676,4.66731 0.92826,1.759806 -0.85092,2.677964 1.62447,2.142373 -0.30942,1.300725 0.0773,0.994673 -0.85092,1.606779 -1.08297,0.306053 -0.46412,0.994672 -1.62447,0.765134 -0.54149,1.147705 1.08297,2.601449 -0.38677,1.912834 0.38677,1.147704 -0.77355,1.453745 0.30942,1.45375 -1.00561,1.45375 0.1547,1.6833 -0.54148,0.84164 0.54148,3.44311 0.54149,1.14769 -0.38677,1.98935 0.69619,1.37724 -0.15471,1.91282 -0.38677,0.99468 -0.0774,1.07119 1.62446,1.98935 14.2334,-2.9075 0.77356,-1.14772 0.23207,-1.30072 1.46975,-0.45907 0.38679,-0.84165 1.31503,-0.84164 1.00562,0.22952 0.61885,-3.67262 -1.77919,-1.07119 -0.61884,-1.68328 -2.47536,-1.53028 -0.46414,-3.06052 -9.2053,-28.156905 z" style="fill-opacity:1;stroke:#000000;stroke-width:1.92333;stroke-dasharray:none;stroke-opacity:1;fill:#46327e" />
    <path class="state" id="New Jersey" d="m 653.82719,151.83503 -11.2939,-3.74915 -1.3924,1.91283 0.0774,1.6833 -2.32067,4.13172 1.16034,1.37723 -0.54149,1.53026 -0.77356,0.76514 0.38678,2.75447 2.0886,0.68863 0.77355,2.14237 1.62446,0.84165 3.24893,2.44842 -2.55273,1.98934 -1.23767,1.75981 -1.39241,2.2954 -1.23769,0.45908 -1.08297,1.30072 -0.77355,1.68329 -0.23207,1.60679 0.61883,0.68861 0.30943,1.75982 0.92828,0.45908 1.85652,1.1477 1.3924,0.6121 1.23768,0.6121 0.0774,0.84165 0.61884,0.0765 0.85091,-0.91815 0.61884,0.30605 1.62447,0.15302 -0.15471,2.21889 0.15471,1.91284 1.3924,-0.53561 1.16032,-2.98401 1.23771,-3.67264 2.2433,-2.14237 0.46413,-2.67796 -0.46413,-0.91817 1.31503,-2.21889 v -0.91815 l -0.54148,-0.84165 0.92827,-2.06586 -0.23207,-2.75447 -0.46413,-6.27409 -0.92827,-1.07119 v 1.07119 l 0.38678,0.45907 h -0.85091 l -0.46413,-0.30605 -1.00563,-0.15302 -0.69619,0.45907 -0.92828,-1.22421 0.5415,-1.30072 v -0.76513 l 1.31504,-0.53561 0.61884,-1.60677 z" style="fill-opacity:1;stroke:#000000;stroke-width:1.92333;stroke-dasharray:none;stroke-opacity:1;fill:#1fa187" />
    <path class="state" id="New Mexico" d="m 278.65326,257.04079 h -0.61884 l -6.11108,75.97769 -24.59903,-1.98934 -26.61028,-2.75448 -0.23206,2.29541 1.5471,1.68328 -23.82547,-3.13704 -1.08298,7.80435 -12.14481,-1.68329 13.45986,-94.95299 40.68896,4.97336 39.99277,3.67265 z" style="fill-opacity:1;stroke:#000000;stroke-width:1.92333;stroke-dasharray:none;stroke-opacity:1;fill:#277f8e" />
    <path class="state" id="New York" d="m 677.34325,141.27619 -1.00563,0.0765 -0.38678,0.76514 z m -23.67077,17.36852 0.54149,0.45909 1.00561,-0.22955 0.85092,0.22955 0.6962,-0.99468 h 1.46975 l 1.85653,-0.68861 3.94512,-1.60678 -0.38677,-0.38258 -1.46976,0.61211 -1.54709,0.68862 0.1547,-0.6121 2.01124,-0.84165 0.61883,-0.76513 0.92828,0.0765 3.17158,-1.7598 v 0.53559 l -3.24894,2.29539 3.48099,-2.14236 1.31504,-1.68329 1.16034,-0.0765 3.48099,-2.3719 2.47538,-2.37192 2.32066,-1.75981 0.77356,-0.91815 -1.31505,-0.0765 -0.77355,0.91817 -0.1547,0.53558 -0.69621,0.5356 -0.61884,-0.84165 -1.31504,0.76514 -0.0774,0.68861 -0.6962,-0.15303 0.38677,-0.68862 -0.92827,-0.53558 -0.46412,0.68862 0.6962,0.22954 0.15472,0.38257 -0.23207,0.38256 -1.08298,1.98935 h -1.46976 l 0.69621,-1.37725 0.69618,-0.45908 0.23208,-1.30073 1.08297,-1.2242 0.6962,-0.6121 1.16034,-0.5356 -0.92827,-0.15303 -0.54148,0.68863 h -0.54149 l -0.85092,0.6121 -0.15471,0.76513 -1.70181,1.60678 -0.30942,0.68862 -1.08299,0.68861 -5.95637,1.45377 0.15472,0.68861 -0.6962,0.5356 -1.54711,0.22953 -0.77355,-0.45907 -0.15472,0.84164 -0.85091,-0.30605 0.0774,0.76513 -0.92826,-0.0765 -0.92827,0.38256 -0.1547,0.84166 H 656.612 l 0.15472,0.76513 h -0.5415 l 0.15471,0.76514 -1.39239,0.30605 -1.16033,1.7598 z m -0.61884,-0.30605 -1.2377,0.30605 v 0.76514 l -0.54149,1.2242 0.46415,0.5356 1.85652,-1.7598 -0.0774,-0.68863 z m -7.81291,-72.840641 -0.46413,1.453752 1.08298,0.68862 -0.30943,1.147699 0.38678,2.448426 1.70181,1.759803 -0.30942,1.683289 0.46415,1.530278 -0.30943,0.76513 -0.23207,2.907499 2.39802,5.126375 -0.61884,1.37726 0.6962,1.68328 0.6962,-1.22421 1.46975,1.14769 2.32067,10.86489 -0.38678,1.53028 0.85092,0.76513 -0.3868,11.47699 0.5415,0.76513 2.16595,12.47166 1.3924,1.1477 -2.70744,2.60146 1.31504,1.68329 -1.00562,2.52493 -1.16033,1.30073 -1.16033,1.75981 -0.15472,-0.5356 0.30943,-4.51428 -11.2939,-3.74915 -1.23768,-0.84164 -1.46976,0.22953 -2.32066,-1.68328 -2.32067,-4.43777 h -1.5471 l -0.30943,-1.14771 -1.31503,-0.84164 -54.5356,10.63534 -0.61884,-4.59079 3.32628,-2.98402 0.46412,-1.30074 3.01688,-1.91283 0.46413,-1.83631 1.77917,-1.53027 0.61884,-0.84163 -1.31504,-2.52496 -1.31504,-0.38255 -1.3924,-2.2954 -0.1547,-2.44843 5.87901,-2.98401 6.34315,-1.22422 h 3.40363 l 2.47538,1.22422 0.6962,-0.0765 1.3924,-1.2242 2.63008,-0.5356 h 2.32066 l 2.01125,-0.99468 1.93389,-1.98934 1.85653,-2.3719 1.46974,-0.30605 0.85092,-0.38258 0.30942,-2.44842 -1.08299,-2.06586 -0.92826,-0.53559 1.54712,-0.99468 -0.0774,-1.37723 h -1.16034 l -1.77917,-1.07119 -0.0774,-2.37192 4.79603,-4.6673 0.54149,-1.836325 2.86215,-4.820323 4.56397,-4.896857 1.62447,-1.300725 1.93389,0.07651 15.93522,-3.978691 z" style="fill-opacity:1;stroke:#000000;stroke-width:1.92333;stroke-dasharray:none;stroke-opacity:1;fill:#1fa187" />
    <path class="state" id="North Carolina" d="m 643.3842,231.94445 -22.51043,4.6673 -30.47805,5.58546 -22.7425,2.67798 v 3.97869 l -1.16034,-0.0765 -1.08297,0.91816 -1.85652,3.97869 -2.01126,-0.84164 -2.70744,1.91283 -0.54149,1.60677 -1.16032,0.91817 -0.61885,-0.61211 -0.0774,-1.1477 -0.61884,-0.15303 -3.09423,2.52494 -0.46412,2.60145 -3.63572,1.83633 -0.38676,0.91815 -2.47539,1.98935 -2.78479,0.38256 -3.55834,2.29541 -0.61885,3.13704 -1.00562,0.68862 -1.16034,-0.0765 -1.08297,0.99468 -0.0774,3.74914 16.55407,-2.29539 3.40363,-1.45375 1.00563,-0.0765 5.64695,-3.29007 17.94646,-1.68328 0.30942,0.38255 -0.15471,1.07119 0.54149,0.22954 0.92826,-1.14771 2.55273,2.2954 0.0774,1.98936 15.23903,-2.14238 18.95208,13.08378 3.09422,-1.6833 2.32066,-0.53559 h 1.31504 l 0.85091,0.84164 0.61884,-1.53026 0.46414,-3.82567 1.31504,-2.98401 4.17719,-4.66731 3.17158,-2.67797 4.1772,-1.75981 1.93388,-0.30605 1.00563,0.30605 0.54147,0.84165 2.55274,-5.04988 2.55274,-4.0552 -0.5415,-0.22954 -3.40364,5.20291 -0.38677,-0.61212 1.5471,-1.68328 -0.30943,-1.1477 -1.54709,-0.38257 0.77355,0.99466 -0.92827,0.0765 -0.92827,-1.37723 -0.92826,1.53025 -1.23768,0.15303 0.77354,-2.06586 0.5415,-1.30073 -0.15471,-2.21887 -1.70183,-0.0765 0.6962,-0.68862 0.85092,0.22954 2.08859,0.0765 0.61884,-0.38257 h 1.77918 l 1.54711,-1.45374 0.15471,-2.44843 1.00562,-1.07118 0.92827,-0.15304 1.00562,-0.76512 -0.38678,-2.831 -1.70182,-2.9075 -2.08859,-0.15302 -0.69621,1.22421 -0.38677,-0.76514 -2.08861,0.15303 -0.92827,0.30606 -1.46974,0.91815 -0.23207,-0.30605 h -0.6962 l -1.39239,0.91815 -2.01124,0.38258 v -0.99468 l 0.61883,-0.76513 0.77356,0.53558 h 0.77356 l 1.31504,-1.60676 2.86215,-1.30074 1.54711,-1.68329 h 1.85652 l 0.61885,0.99468 1.31504,0.6121 -0.38677,-1.14771 -0.23207,-1.2242 -2.16595,-2.37192 -0.23208,-1.07118 -0.30941,0.76513 -0.6962,-0.99467 z m 5.41489,23.71911 2.08859,-1.91283 3.55835,-2.52494 v -2.831 l -0.30942,-2.37191 -1.31504,-3.21355 1.16032,1.07118 0.77356,2.44842 0.30942,5.81502 -1.31504,0.30606 -2.39803,1.8363 -2.47536,2.44843 z m 1.46974,-14.76706 -0.6962,-0.15302 v 0.76512 l 1.93389,1.68329 -0.15472,-1.07118 z m 2.24331,1.60677 -1.08297,-2.14238 -1.70182,-2.60144 -1.85653,-2.2954 -1.70182,-3.29007 -0.61885,-0.53559 1.70182,3.29007 0.23207,0.99468 2.63009,4.20822 1.39239,1.60678 z" style="fill-opacity:1;stroke:#000000;stroke-width:1.92333;stroke-dasharray:none;stroke-opacity:1;fill:#277f8e" />
    <path class="state" id="North Dakota" d="m 361.5783,54.816193 -0.85091,2.142372 0.61885,1.071185 -0.23206,3.902178 -0.38679,0.841646 2.08859,6.962709 1.00563,1.912831 0.5415,10.71186 0.77355,2.065859 -0.30943,4.43777 2.24332,5.661985 0.23206,4.437768 -0.0774,1.606784 -22.81985,-0.30606 -35.58351,-1.606774 -30.32333,-2.218884 4.02248,-51.034364 34.42317,2.601452 42.77755,1.224212 z" style="fill-opacity:1;stroke:#000000;stroke-width:1.92333;stroke-dasharray:none;stroke-opacity:1;fill:#a0da39" />
    <path class="state" id="Ohio" d="m 532.53384,162.08781 1.46976,-0.30605 2.32066,0.99468 1.62447,0.45907 0.54148,0.68863 h 0.77356 l 0.77355,-1.1477 1.00562,0.6121 h 1.16033 l -0.0774,0.76513 -2.39802,0.38256 -1.54711,0.84165 1.46976,0.61211 1.23768,-1.1477 1.85653,-0.30606 1.70182,1.14771 1.16034,-0.0765 1.93388,-1.30073 2.7848,-1.60677 4.02248,-0.22954 3.79042,-4.51429 2.93951,-2.37191 7.19405,-3.90217 3.79042,22.87747 -1.70182,0.91816 1.08297,1.60677 -0.0774,1.68329 0.46413,1.53028 -0.85091,2.60144 -0.0773,4.13172 -0.77356,2.75448 0.38678,0.84164 -0.30942,1.6833 -0.85092,0.38257 -1.5471,2.52493 -1.39239,1.53027 h -0.46414 l -1.3924,1.30072 -1.00561,-0.91816 -1.16034,1.37724 -0.23207,0.91815 h -1.00563 l -1.00561,1.68331 0.0774,1.60678 -0.77355,0.38256 1.08297,0.84164 v 1.45376 l -0.77355,0.15303 -0.54149,0.6121 -0.77356,0.38257 -0.46412,-1.60678 -1.23769,-0.38257 -0.77355,1.75981 -0.23207,1.6833 -0.85091,0.99466 1.00562,2.75448 -1.16033,0.61211 -0.30943,2.67795 h -1.16032 l -2.47538,1.0712 -0.92826,-1.60677 -2.70744,-1.0712 -0.61886,-2.21888 -0.38676,-0.6121 -2.6301,1.37723 -0.46412,1.30073 h -0.6962 l -1.00562,0.53559 -0.92827,-0.61211 -2.32065,-0.6121 -1.46977,0.6121 v 0.76513 l -1.70182,-0.15302 -1.46974,-1.60678 -1.77919,0.15303 -3.17157,-0.53559 v -0.76514 l -1.70182,-2.60144 -2.24331,-0.91817 -1.46976,0.61211 -1.7018,-0.0765 -1.00563,-0.38256 -5.10546,-43.7656 16.55407,-2.67796 z" style="fill-opacity:1;stroke:#000000;stroke-width:1.92333;stroke-dasharray:none;stroke-opacity:1;fill:#a0da39" />
    <path class="state" id="Oklahoma" d="m 390.04511,307.31002 -3.55836,-2.90751 -1.7018,-0.68861 -0.38679,1.22421 -3.94512,0.22954 -0.46414,-1.1477 -3.86777,1.91283 -1.23769,-0.53559 -2.86215,0.22954 -0.46413,1.30072 -2.78481,0.68862 -1.00562,-0.91816 -0.92826,0.0765 -1.5471,-1.37723 -1.62447,0.53558 -1.5471,-0.38256 -1.39241,-1.53027 -1.93389,3.21356 -0.92826,0.61211 -0.77354,-1.37724 0.23205,-1.53027 -0.92826,-0.53559 -1.77918,1.91283 -1.31504,-0.91815 -0.0774,-1.14771 -1.00562,0.38257 -2.01124,-1.30073 -2.32068,1.98934 -1.77916,-0.84163 0.54149,-1.60679 -1.77919,0.0765 -1.46974,-2.29539 -2.70744,-0.84165 -1.54711,1.75981 -1.77917,-1.68329 -1.08299,0.30605 -1.5471,0.0765 -2.70745,-1.45374 -1.77916,0.0765 -0.92827,-0.53558 -0.38679,-2.21889 -1.77918,-1.30073 -0.8509,1.1477 -1.08298,-0.76512 -0.92826,-0.30606 -0.85091,0.76513 -1.16034,-0.22953 -1.93388,-2.2954 -2.08861,-0.99467 1.08299,-32.67118 -40.68896,-2.44843 0.46413,-8.1104 12.76364,0.76513 52.36965,2.21888 47.96036,0.0765 0.15473,8.26345 3.17157,18.66923 -0.54149,29.84018 z" style="fill-opacity:1;stroke:#000000;stroke-width:1.92333;stroke-dasharray:none;stroke-opacity:1;fill:#4ac16d" />
    <path class="state" id="Oregon" d="m 74.744303,129.72269 36.357067,8.56949 6.57521,-28.53946 2.24331,-4.43777 0.30941,-1.60678 0.61884,-0.68862 -0.69619,-1.53026 -2.24331,-0.91815 0.15472,-3.213568 3.0942,-4.437768 1.93389,-0.6121 1.23769,-1.759809 -0.0773,-1.224211 1.3924,-1.224213 2.47536,-4.20823 3.24894,-3.672638 -0.38678,-2.448426 -2.70744,-2.371911 -1.23769,-2.754478 -23.43869,-5.585471 -2.16596,0.765134 -4.177198,-0.688621 -1.392389,-0.688619 -1.160337,0.918159 -2.552725,-0.306053 -3.480997,0.382567 -0.696199,0.535593 -3.24893,-0.306053 -0.618843,-1.224213 -0.928266,-0.153027 -3.40364,0.994674 -1.237686,-0.841647 -1.701821,0.612106 -0.15471,-1.377238 -1.779176,-0.918159 -1.160332,-0.153027 -0.773555,-0.841647 -2.320662,0.229541 -0.928265,-0.612107 h -0.928267 l -0.928265,0.68862 -4.254549,0.535593 -5.105461,-3.213559 0.85091,-4.284743 -0.30942,-3.137045 -2.475374,-2.830991 -2.862152,0.07651 -0.309422,-0.841647 0.309422,-0.918158 -0.541489,-0.612107 -0.773555,0.07652 -0.850909,0.994672 -1.160332,-0.153026 -0.386777,-0.841646 -0.773555,-0.07652 -0.541488,0.45908 -1.547108,-1.453753 v 3.290071 l -1.005622,0.994673 -0.85091,2.677965 -0.07735,1.759805 -3.480994,9.411135 -10.21092,23.948656 -2.475374,3.519609 -1.237688,-0.07652 0.07736,1.606775 -4.022484,5.432451 -0.232065,2.52493 0.773553,0.99468 0.07736,1.83631 -0.928265,0.84165 -0.928266,2.2954 0.07736,4.36126 0.928266,2.21887 z" style="fill-opacity:1;stroke:#000000;stroke-width:1.92333;stroke-dasharray:none;stroke-opacity:1;fill:#a0da39" />
    <path class="state" id="Pennsylvania" d="m 641.29561,147.24424 -1.46976,0.22953 -2.32066,-1.68328 -2.32067,-4.43777 h -1.5471 l -0.30943,-1.14771 -1.31503,-0.84164 -54.5356,10.63534 -0.61884,-4.59079 -3.24894,2.60145 -0.69619,0.0765 -2.08859,2.29541 -2.55274,1.30073 3.79042,22.87746 2.47537,15.07313 13.45985,-2.21889 46.80004,-9.02857 0.92827,-1.60678 1.16033,-0.84164 1.23769,-0.22954 1.23769,0.45907 1.08297,-1.30072 1.23769,-0.45908 1.3924,-2.2954 1.23768,-1.75981 2.55274,-1.98934 -3.24894,-2.44842 -1.62445,-0.84165 -0.77356,-2.14237 -2.0886,-0.68862 -0.38678,-2.75448 0.77355,-0.76514 0.5415,-1.53026 -1.16033,-1.37724 2.32066,-4.13171 -0.0774,-1.6833 1.39239,-1.91284 z" style="fill-opacity:1;stroke:#000000;stroke-width:1.92333;stroke-dasharray:none;stroke-opacity:1;fill:#46327e" />
    <path class="state" id="Rhode Island" d="m 685.31086,132.93625 -1.00562,-0.84164 -2.01124,-0.99468 -0.46414,-1.68329 h -0.61885 l -0.54148,-1.98935 -5.02811,1.53027 2.47538,9.41113 -0.30942,0.84164 0.30942,1.37725 4.3319,-2.75448 0.0774,-2.2954 -0.61884,-0.61211 0.30941,-0.45908 -0.0774,-0.99467 -0.6962,-0.53559 0.92827,-0.30605 -0.6962,-1.22423 1.39239,0.53561 0.23208,1.07118 0.54147,0.91816 -1.08297,-0.61211 0.85092,1.30073 -0.23207,0.91816 -0.46414,-0.84163 v 1.91283 l 0.46414,-0.68863 0.30942,0.68863 1.00562,-1.14771 -0.15471,-1.91283 1.08298,2.37191 0.77355,-0.68863 z m -3.63571,9.33462 h 0.6962 l 0.38677,-0.45907 -0.61884,-0.99469 -0.54149,0.53561 z" style="fill-opacity:1;stroke:#000000;stroke-width:1.92333;stroke-dasharray:none;stroke-opacity:1;fill:#1fa187" />
    <path class="state" id="South Carolina" d="m 599.52367,270.27759 -15.23902,2.14237 -0.0774,-1.98934 -2.55273,-2.2954 -0.92825,1.1477 -0.5415,-0.22953 0.1547,-1.0712 -0.30942,-0.38256 -17.94645,1.68329 -5.64695,3.29006 -1.00562,0.0765 -3.40364,1.45375 -0.0774,1.45376 -1.46977,0.76513 -1.08297,2.44841 0.15472,0.99468 4.71867,2.90751 2.01125,-0.22955 2.39802,3.06053 0.30942,1.30073 3.24893,3.90218 2.01123,1.30072 1.08298,0.15303 1.70183,1.22422 0.85091,1.68329 1.5471,1.2242 1.3924,0.38258 2.0886,2.06586 0.0774,1.07118 2.01123,2.14238 3.86778,1.7598 2.78479,5.12638 0.23207,2.06586 3.01686,1.60678 1.93389,3.67265 0.61885,2.3719 3.24893,0.30606 0.61883,-1.1477 h 0.46414 l 1.39239,-1.1477 0.38679,-1.53027 2.47536,-1.60678 0.23208,-1.83631 -0.92827,-0.68863 0.61884,-0.53558 0.61885,0.30605 1.00562,-0.30605 1.39239,-1.60678 2.93951,-1.37724 1.23769,-1.83632 0.0774,-0.5356 3.71306,-3.36657 -0.0774,-0.38258 -0.6962,-0.6121 0.85091,-1.1477 h 0.61884 l 0.30942,0.38257 0.54149,-0.61212 h 1.00563 l 0.46412,-1.14769 1.77918,-1.60678 -0.23207,-4.13171 0.61885,-1.75981 2.7848,-4.74382 1.85652,-1.6833 1.70182,-0.84164 z" style="fill-opacity:1;stroke:#000000;stroke-width:1.92333;stroke-dasharray:none;stroke-opacity:1;fill:#277f8e" />
    <path class="state" id="South Dakota" d="m 308.82189,98.658306 35.58351,1.606774 22.81986,0.30606 -0.0774,1.68328 -0.69619,1.53027 -2.39801,1.45375 -0.23207,0.91816 1.31504,1.91283 0.30942,1.37724 2.01123,0.45907 1.16034,1.45376 -0.15472,30.22275 -1.70181,-0.0765 -0.0774,1.22421 1.00562,1.1477 -0.0774,0.84165 -0.77355,0.38256 0.30942,1.22421 1.00562,0.30605 0.5415,1.53028 -1.31506,3.90217 -0.77354,3.29008 1.00561,0.91815 0.23208,0.99468 0.54149,1.30071 -1.16034,0.15303 -1.3924,-0.53558 -0.69619,-1.98936 -0.92827,-0.99466 -4.71869,-1.6833 -0.46413,-0.84165 -1.54712,-0.45908 -1.08297,0.45908 -0.77355,-0.38255 -0.69619,0.30604 -0.54149,-0.30604 -0.6962,0.30604 -0.5415,-0.38257 -0.77355,0.5356 -1.16033,-0.45907 -1.39239,1.53026 -1.3924,0.0765 -1.62446,-1.53027 -1.31505,-0.15303 -2.63008,-2.44842 -29.39507,-1.22421 -39.52864,-2.67797 3.01687,-33.58932 1.5471,-15.838248 z" style="fill-opacity:1;stroke:#000000;stroke-width:1.92333;stroke-dasharray:none;stroke-opacity:1;fill:#a0da39" />
    <path class="state" id="Tennessee" d="m 482.40752,281.67807 35.35143,-3.06054 17.7144,-2.21888 0.0774,-3.74914 1.08297,-0.99468 1.16033,0.0765 1.00562,-0.68863 0.61884,-3.13704 3.55835,-2.2954 2.7848,-0.38256 2.47537,-1.98935 0.38677,-0.91815 3.63571,-1.83633 0.46414,-2.60145 3.09422,-2.52493 0.61884,0.15303 0.0774,1.1477 0.61884,0.6121 1.16033,-0.91817 0.54149,-1.60676 2.70745,-1.91284 2.01125,0.84165 1.85652,-3.9787 1.08298,-0.91816 1.16033,0.0765 v -3.97869 l 0.23207,-0.5356 -3.55835,0.38257 -0.15472,0.76513 -22.35571,2.52494 -4.33191,1.07119 -15.85788,1.07118 -4.02248,0.61212 -13.45985,0.76512 -2.01124,0.61211 -17.48233,1.53027 -0.54149,-0.45909 h -2.86214 l 0.92825,2.44844 -0.46412,0.6886 -18.02383,1.1477 -0.61884,0.76514 -0.61885,-0.53559 h -0.77355 v 0.99467 l 0.46413,0.76513 -0.0774,0.76513 -1.08297,0.38257 1.08297,1.1477 -0.61884,0.53559 -1.31504,-0.15302 0.46413,0.76513 0.92825,0.84165 v 0.53558 l -0.92825,0.38258 -0.77355,1.53025 0.0773,0.45909 1.08298,0.76514 -0.30943,0.53559 h -1.16033 v 0.38257 l 0.6962,0.68861 0.0774,0.61211 -1.08297,0.15302 -0.3868,0.61211 -1.23767,0.15303 -0.6962,0.68863 0.46413,0.6886 0.85092,-0.0765 0.38677,0.68862 -1.23769,0.99468 0.30942,1.14769 -1.54711,-0.45907 -0.0774,0.53558 0.30942,0.84165 -0.23207,1.07118 -1.00562,-0.6121 -0.61884,0.6121 0.85091,0.0765 0.0774,1.14769 -0.46413,0.76513 0.85091,0.68863 -0.23207,1.14769 0.61885,0.5356 -0.54149,0.76513 -0.92826,-0.38256 -0.69621,1.68329 -1.23768,0.53559 z" style="fill-opacity:1;stroke:#000000;stroke-width:1.92333;stroke-dasharray:none;stroke-opacity:1;fill:#277f8e" />
    <path class="state" id="Texas" d="m 220.48197,330.57007 0.23206,-2.29541 26.61028,2.75448 24.59903,1.98934 6.11108,-75.97769 h 0.61884 l 40.68897,2.44843 -1.08298,32.67117 2.08859,0.99468 1.93389,2.2954 1.16033,0.22954 0.85092,-0.76514 0.92826,0.30605 1.08297,0.76513 0.85092,-1.1477 1.77917,1.30073 0.38678,2.21889 0.92827,0.53559 1.77918,-0.0765 2.70744,1.45376 1.54709,-0.0765 1.083,-0.30605 1.77916,1.68328 1.54712,-1.75979 2.70744,0.84163 1.46975,2.29541 1.77917,-0.0765 -0.54149,1.60678 1.77918,0.84163 2.32067,-1.98934 2.01124,1.30074 1.00562,-0.38258 0.0774,1.1477 1.31504,0.91816 1.77918,-1.91283 0.92827,0.53559 -0.23207,1.53027 0.77355,1.37724 0.92826,-0.61212 1.93389,-3.21354 1.3924,1.53026 1.54711,0.38257 1.62447,-0.5356 1.5471,1.37724 0.92826,-0.0765 1.00562,0.91815 2.78481,-0.68862 0.46412,-1.30072 2.86215,-0.22953 1.2377,0.53559 3.86777,-1.91284 0.46414,1.1477 3.94512,-0.22954 0.38678,-1.2242 1.70181,0.68862 3.55836,2.9075 4.95075,1.45375 2.01124,1.7598 2.16595,-0.99467 2.47538,0.61211 0.15471,9.10508 0.38677,15.22614 0.5415,2.60145 2.01123,2.14237 0.54148,4.13172 2.93951,3.51961 0.61885,3.29008 h 0.77356 l -0.0774,5.58545 -2.55274,4.89686 1.00562,1.75981 -1.00562,1.14769 0.5415,2.29542 -0.0774,3.29006 -1.70183,2.67796 -0.0774,0.6121 -1.31504,0.91817 0.77355,1.37724 0.92827,0.84165 -2.70744,0.22953 -6.49787,2.98402 -2.70743,1.07119 -1.3924,1.37723 -0.54149,-0.38255 1.62446,-1.75982 1.39241,-0.53558 0.38677,-0.68863 -2.2433,-0.0765 -0.54149,-0.6121 0.61884,-1.53028 -0.6962,-1.37723 h -0.46413 l -1.85653,0.99468 -1.46976,1.98934 0.23207,1.30072 2.55273,2.60146 1.00562,0.22953 v 0.61211 l -1.77918,1.22422 -3.7904,3.06052 -3.09424,2.98403 -2.47536,1.07118 -3.86778,2.29539 -2.86215,1.53027 -3.48099,1.45376 -3.17158,1.91283 2.47538,-2.2954 v -0.84165 l 0.46412,-0.6121 -0.1547,-1.37724 -1.16034,-0.0765 -0.8509,1.14771 -2.01125,0.99467 -1.39239,-0.91816 -0.23208,-1.30072 h -1.16032 l 0.61885,1.68329 1.08297,0.53559 0.92827,0.68863 1.39239,1.22421 -0.54148,0.6121 -3.01686,1.30073 -1.31505,0.0765 -0.92826,-0.91816 -0.38679,1.60679 0.38679,0.84165 -2.0886,1.53026 -1.16033,0.15303 -0.61885,0.5356 -0.30942,1.30072 -1.39239,2.52494 -1.2377,0.53559 -1.23768,-0.45908 -1.3924,0.84164 0.23207,1.07119 1.00562,0.61211 0.77355,0.6121 -1.3924,2.67798 -0.23206,2.14236 -0.77356,1.30073 -1.08298,0.76513 -2.2433,0.30606 1.3924,0.45907 1.46975,-0.45907 -0.30942,2.44842 -0.85091,-0.0765 0.15471,0.91817 0.23206,1.07118 -1.00561,0.68863 v 2.3719 l 1.23768,1.0712 0.46413,2.3719 -0.30941,1.68329 -0.77356,0.30605 0.30942,1.1477 0.85091,0.30606 0.61885,1.30072 v 1.98936 l 0.8509,1.60676 1.70182,1.98936 -0.0774,0.53559 -1.70181,-0.15302 -1.23769,1.07118 0.15471,1.07118 -0.6962,-0.22953 -1.08297,-0.15303 -2.63009,-2.831 -1.77918,-0.45908 h -5.49223 l -2.16596,-0.6121 -2.78478,-2.29541 -1.31506,-0.76512 -1.62445,0.0765 -2.47538,-1.98934 -4.1772,-1.22422 v -0.99468 l -1.08297,-1.37723 -0.6962,-3.59612 -0.85092,-1.30073 -1.31504,-1.07118 v -1.22422 l -1.08297,-0.45908 0.46413,-1.98934 -0.23206,-1.6833 -1.00562,-1.07118 0.54148,-2.2954 -0.61885,-2.44843 -1.31504,-1.07119 h -0.8509 l -3.09422,-2.67796 0.0774,-1.45375 -0.61885,-1.30072 -0.61885,-0.15303 -0.69619,-1.83632 -1.54711,-1.22422 -2.24331,-1.91282 -0.15471,-1.60678 -0.77355,-0.5356 0.15471,-1.22421 0.38677,-0.5356 -1.08298,-1.14769 0.0774,-0.53559 -1.5471,-1.68329 0.0774,-1.60679 -2.0886,-3.74915 -0.0773,-1.30072 -1.3924,-2.37192 -3.94513,-3.67264 v -0.84163 l -2.55273,-1.30073 -0.0774,-1.37724 -0.92826,-0.30605 v -0.5356 l -0.61884,-0.15303 -1.62447,-2.14237 h -0.61884 l -0.54149,-0.45908 -1.00562,0.84165 h -1.70182 l -2.01125,-0.84165 h -3.55833 l -3.24894,-1.60678 -1.00562,1.45375 -1.70181,-0.45908 -2.55274,0.91816 -1.31503,2.14238 -1.54713,2.44842 -0.8509,3.36659 -1.08298,0.91815 -0.8509,0.0765 -0.6962,1.22421 -1.00563,0.45908 -0.0774,1.37724 -2.24331,0.0765 -1.3924,-1.14771 h -0.77362 l -1.54711,-2.21889 -2.7848,-0.38256 -1.31505,-1.7598 -1.00563,-0.15303 -1.62445,-0.61211 -2.63009,-2.60145 0.15472,-0.6121 -1.23769,-0.91816 -0.77356,-0.0765 -2.63007,-2.37191 -0.0774,-1.53027 -1.77917,-3.06052 0.1547,-1.22421 -0.54148,-0.99468 0.61885,-1.14769 -0.0774,-1.83632 -2.01124,-3.13705 -0.46412,-3.21356 -1.23769,-1.22421 v -0.76514 l -0.92828,-0.15302 -0.54147,-0.84166 -1.85654,-1.30071 -0.69619,-0.0765 -1.46976,-1.22421 v -0.84164 l -2.24331,-1.37725 -0.46413,-1.60677 -2.01124,-1.75981 -2.47538,-3.36658 -2.32066,-0.99469 -1.62447,-1.37723 0.15472,-0.91815 -1.00562,-1.0712 -1.31505,-2.83099 -1.85653,-0.76513 z m 135.29468,105.81786 0.61884,0.0765 -0.46414,-3.67264 -2.70743,-9.41113 -0.15472,-6.19758 3.79042,-8.03389 4.71868,-6.27409 5.56959,-3.90217 v -0.53559 h -0.61884 l -2.01124,0.76513 -2.7848,1.7598 -0.54149,1.1477 -6.34314,8.87554 -2.16596,6.04455 v 6.73317 l 2.78481,9.1816 z" style="fill-opacity:1;stroke:#000000;stroke-width:1.92333;stroke-dasharray:none;stroke-opacity:1;fill:#fde725" />
    <path class="state" id="Utah" d="m 182.50044,169.05051 2.55274,-16.75639 -37.05328,-6.27411 -16.24462,83.39949 35.7382,6.27408 30.94219,4.5908 8.89587,-67.56122 z" style="fill-opacity:1;stroke:#000000;stroke-width:1.92333;stroke-dasharray:none;stroke-opacity:1;fill:#a0da39" />
    <path class="state" id="Vermont" d="m 666.66819,80.677683 -0.85092,2.677963 1.62447,2.142373 -0.30942,1.300726 0.0773,0.994672 -0.85092,1.606779 -1.08297,0.306054 -0.46412,0.994672 -1.62447,0.765129 -0.54149,1.147703 1.08297,2.601449 -0.38677,1.912834 0.38677,1.147704 -0.77355,1.453745 0.30942,1.453754 -1.00561,1.45375 0.1547,1.6833 -0.54148,0.84163 0.54148,3.44311 0.54149,1.14769 -0.38677,1.98935 0.69619,1.37724 -0.15471,1.91283 -0.38677,0.99468 -0.0774,1.07119 1.62446,1.98934 -9.59206,2.06586 -0.85092,-0.76513 0.38678,-1.53028 -2.32067,-10.86489 -1.46975,-1.14769 -0.6962,1.22421 -0.6962,-1.68328 0.61884,-1.37726 -2.39802,-5.126375 0.23207,-2.907499 0.30943,-0.76513 -0.46415,-1.530278 0.30942,-1.683289 -1.70181,-1.759803 -0.38678,-2.448426 0.30944,-1.147699 -1.08299,-0.68862 0.46413,-1.453752 -0.61885,-1.300726 21.11805,-5.279416 z" style="fill-opacity:1;stroke:#000000;stroke-width:1.92333;stroke-dasharray:none;stroke-opacity:1;fill:#46327e" />
    <path class="state" id="Virginia" d="m 647.79347,205.39433 -0.85091,2.14238 0.38676,0.84163 0.30942,-0.84163 0.61886,-2.37193 z m -26.765,-5.35592 -0.54148,-0.76515 0.77356,-0.0765 0.77354,-0.68863 0.30943,-1.37724 -0.1547,-0.38256 0.0774,-0.38257 -0.23205,-0.53559 -0.46413,-0.38257 -0.30943,-0.0765 -0.38678,-0.30605 -0.46412,-0.45908 h -0.77356 l -0.46413,-0.0765 -0.30943,-0.30606 0.0774,-0.38256 -1.31505,-0.45908 -0.61884,0.22954 -0.92826,-0.0765 -0.54149,-0.5356 -0.38677,-0.15302 -0.15472,-0.5356 0.46413,-0.61211 v -0.68862 l -0.92826,-0.15302 -0.77355,-0.68862 -0.69621,0.0765 -1.23768,-0.22954 -0.30943,0.5356 -0.30942,1.22422 -0.38676,1.7598 -7.73556,-3.97869 -0.1547,0.68861 0.69619,1.22422 -0.61884,1.75979 0.0774,2.2189 -0.92827,0.61211 -0.38678,1.60678 -0.69619,0.61211 -1.08297,1.37723 -0.6962,0.61211 -0.77356,1.91283 -1.85653,-0.84165 -1.77918,6.50363 -1.00562,1.22422 -2.16595,-0.38258 -1.00562,-1.45375 -1.77918,-0.53559 -0.0774,3.59612 -1.08297,1.30072 0.30942,1.14771 -1.62446,1.68329 0.30941,1.45376 -2.86214,4.82034 -0.77355,2.52493 1.16033,0.91816 -1.16033,1.45376 0.0774,1.07118 -1.77917,1.53027 -0.54148,-0.84166 -3.32629,2.37192 -1.16032,-0.76513 -0.46414,1.07118 0.61885,0.38256 -0.38679,0.68862 -4.25454,1.83633 -2.32066,-1.37724 -0.61885,1.30072 -1.46975,1.37724 -1.77918,0.0765 -3.40365,-1.75981 -0.0774,-1.1477 -1.16033,-0.53559 0.61884,-0.91817 -0.54149,-0.45908 -3.79041,5.04989 -2.24331,0.76513 -2.32066,2.2954 -0.30942,1.68329 -1.62447,0.99466 -0.0774,1.30074 -1.08297,1.07119 -1.39241,0.38255 -0.38677,1.45376 -0.77355,0.30605 -5.33753,3.21356 22.35573,-2.52493 0.15471,-0.76513 3.55835,-0.38258 -0.23208,0.5356 22.74251,-2.67797 30.47804,-5.58546 22.51045,-4.66732 -0.46414,-0.91816 0.30942,-0.0765 0.69621,0.68862 -0.0774,-1.07118 -0.23208,-1.45376 1.2377,0.91816 0.69619,1.60678 v -0.99467 l -2.63008,-4.20824 v -0.91816 l -0.5415,-0.6121 -1.00562,0.53559 0.38678,1.07118 h -0.61883 l -0.30942,-0.76512 -0.46414,0.68861 -0.6962,-0.84164 -1.62446,-0.0765 -0.15471,0.53559 1.16033,1.60678 -1.08297,-0.5356 -0.38679,-0.76513 -0.30942,0.61211 -0.61884,0.0765 -1.16034,1.30073 0.23207,-1.22422 v -1.07118 l -1.16033,-0.5356 -1.3924,-0.38256 -0.15471,-1.30072 -0.46414,-0.99468 -0.46412,0.84166 -1.31505,-0.76514 -1.54711,0.22953 0.15472,-0.68861 1.16032,-0.15303 0.6962,0.38257 1.31504,-0.61211 0.69621,0.30605 0.38678,0.76513 v 0.53561 l 1.46975,0.30605 0.23207,0.68862 0.6962,0.30605 0.69619,0.91815 1.08297,-1.2242 h 0.46415 l -0.0774,-1.60678 -1.00562,0.76513 -0.46413,-0.68863 1.16034,-0.15302 -0.92827,-0.68862 -0.92826,0.45909 -0.0774,-1.30074 -1.31504,0.15302 -1.70183,-0.84163 -1.39239,-1.68329 2.78479,1.68329 0.69621,0.22953 1.31504,-0.6121 -1.31504,-0.68863 0.46412,-0.45907 -0.77354,-0.38257 0.61884,-0.15304 -0.23208,-0.6886 0.85092,0.6886 0.30941,-0.6121 0.30943,0.99469 0.92826,0.61209 0.46415,-0.38257 -0.38679,-0.45907 -0.0774,-1.91283 -0.85091,-0.0765 -1.23769,-0.6121 0.6962,-0.84166 -1.54711,-0.0765 -0.30942,-0.38256 -1.08298,0.45907 -1.08297,-0.6121 -0.38678,-0.91816 -1.62447,-0.91817 -1.62447,-1.37724 -1.70181,-1.45374 2.32066,0.99467 0.69621,0.91816 1.62445,0.53559 1.77918,1.91283 0.1547,-1.30072 0.46415,0.99467 1.77918,0.38257 v -3.06054 l -0.61886,-0.84164 0.85092,0.30605 0.0774,-1.22421 -2.39802,-1.07118 -1.2377,-0.15303 -1.00562,-0.15303 0.23207,-0.91816 -1.16034,-0.22954 -0.0774,-0.45908 h -1.3924 l -0.15472,0.6121 -0.54148,-0.76513 h -2.0886 l -0.77355,-0.30605 -0.15472,-0.76513 -0.92827,-0.45908 -0.30941,-1.14769 -0.46414,-0.30606 -0.54149,0.84164 -0.69619,0.15303 -0.69621,0.53559 h -1.16032 l -0.69619,-0.99467 0.30942,-2.37191 0.38677,-1.83632 0.46413,0.38257 z m 16.94086,8.87554 0.69618,-0.0765 v -0.45908 l -0.61883,0.0765 z m 5.80164,10.86487 -0.77355,2.06586 0.92828,-0.99467 z m -1.39239,-11.70653 0.54149,0.22955 -0.15472,1.45374 -0.38677,-0.38256 -1.00563,0.76514 0.77356,0.30604 -1.3924,3.36659 0.0774,6.19758 1.46976,2.37191 0.38677,-1.1477 0.30942,-2.06587 -0.23207,-1.75979 0.54149,-0.68862 -0.1547,-1.0712 0.92827,-0.45908 -0.46415,-0.38255 0.38679,-0.53561 0.61883,0.84166 -0.1547,0.84164 -0.30942,2.98403 0.85091,-1.68331 0.30942,-2.37191 0.0774,-2.29539 -0.23206,-1.53027 0.46413,-1.75981 0.85091,-1.37723 0.0774,-1.68329 0.23207,-0.68863 -3.55836,1.22422 -0.54148,0.6121 z" style="fill-opacity:1;stroke:#000000;stroke-width:1.92333;stroke-dasharray:none;stroke-opacity:1;fill:#fde725" />
    <path class="state" id="Washington" d="m 127.346,66.293184 0.5415,3.060533 -0.85092,3.290071 -23.43869,-5.585471 -2.16596,0.765134 -4.177198,-0.688621 -1.392389,-0.688619 -1.160337,0.918159 -2.552725,-0.306053 -3.480998,0.382567 -0.696199,0.535593 -3.248929,-0.306053 -0.618843,-1.224213 -0.928267,-0.153027 -3.403638,0.994674 -1.237688,-0.841647 -1.70182,0.612106 -0.15471,-1.377238 -1.779177,-0.918159 -1.160331,-0.153027 -0.773554,-0.841647 -2.320664,0.229541 -0.928264,-0.612107 h -0.928267 l -0.928265,0.68862 -4.254549,0.535593 -5.10546,-3.213559 0.85091,-4.284743 -0.309422,-3.137045 -2.475374,-2.830991 -2.862152,0.07651 -0.309421,-0.841647 0.309421,-0.918158 -0.541488,-0.612107 -0.773555,0.07652 -1.624463,-1.1477 -0.928267,0.306055 -1.547108,-0.07652 -0.541488,-1.147698 -1.237688,-0.22954 1.933887,-5.738497 -0.541488,4.590797 0.386777,0.382566 V 44.33387 l 0.618844,-0.153026 0.850909,1.759805 -0.386777,-1.683291 0.928265,-3.213558 1.392399,0.306053 -0.85091,-1.530266 -0.773555,0.22954 -1.160331,-0.306053 0.15471,-3.213558 0.154712,1.147699 0.696198,0.382567 0.464134,-1.224213 h 2.475374 l -1.701822,-0.918159 -1.315042,-1.453752 -1.082976,1.224212 0.928266,-2.371913 -0.232066,-3.51961 -0.154711,-2.754477 0.696199,-4.667312 -0.386777,-1.530265 -1.082977,-1.606778 0.07736,-3.060533 0.309422,-2.065858 1.54711,-1.759805 -0.54149,-1.071186 0.154712,-0.45908 0.696199,0.07652 6.033724,5.815009 3.635707,1.453753 3.945128,1.912832 2.475374,-0.07651 0.154711,2.295397 0.773554,-1.224212 h 0.541488 l 0.464133,2.065859 0.386778,-1.989346 1.082976,-0.153026 0.386777,0.535592 -0.850909,0.45908 0.07735,1.224213 0.541488,-1.147699 h 0.850911 l -0.309423,1.989344 -0.850908,-0.612105 0.30942,1.071186 -0.07736,1.147699 -0.618842,0.535593 -1.933886,2.218885 0.928265,-2.601452 -1.237688,0.306053 -0.309422,1.60678 -2.939507,2.142372 -0.309422,0.765133 -1.624463,1.683292 -0.07736,0.765132 h 1.701821 l 1.85653,-0.153026 0.386778,-0.68862 -3.016862,0.382567 v -0.45908 l 2.01124,-2.142372 1.392399,-0.612107 1.469754,-0.153026 0.773554,-1.224213 2.320664,-1.759805 v -1.071193 h 0.85091 l 0.07736,3.060531 h -1.160332 l -0.464133,0.612107 -0.850909,-0.688619 0.232066,0.841646 v 1.300726 l -0.541489,0.535592 -0.232066,-1.224212 -0.618843,0.612106 0.541488,0.45908 -0.696199,0.841645 h 1.00562 l 0.541489,-0.382566 0.07735,1.530266 -0.773555,1.453752 -0.696199,0.765133 -0.07735,1.37724 -0.773554,-0.153028 -0.154711,-1.071186 0.6962,-0.841645 -0.618845,-0.382566 -0.618842,0.535592 -0.541489,1.683293 -0.618844,0.688619 -0.07735,-1.530266 0.618843,-0.841646 -0.15471,-0.841646 -0.928267,0.91816 0.07736,1.683291 -0.464132,0.306054 -1.624465,-0.306054 -1.005621,0.91816 1.701819,-0.45908 -0.15471,1.683292 0.773554,-1.377239 0.309423,1.071187 0.386775,-0.765134 0.54149,1.37724 h 0.541487 l 0.541489,-0.612106 0.464133,-0.07651 1.547108,-1.453753 0.154712,-0.918159 0.618842,0.459079 0.232068,0.68862 0.541487,-0.22954 0.07736,-0.918159 h 1.005621 l 0.154711,-2.218886 -0.07736,-2.065858 0.696199,0.229539 -0.541488,-1.606778 1.082976,-0.612107 0.154711,-1.836318 1.779176,-1.683292 0.773554,0.07651 0.232066,-1.071186 -0.928266,-1.071186 -0.07736,-2.677966 -0.618843,0.688621 0.541487,2.218884 -0.464131,0.07652 -0.464133,-1.45375 -0.464133,-0.382567 0.232067,-1.759806 1.392398,-0.07651 0.232066,0.535595 0.232066,-1.224213 -1.237687,-1.300727 -0.464133,-1.224213 -0.15471,1.530266 0.696199,0.841647 -0.541489,0.306053 -0.773554,-0.612106 -1.392398,0.994672 1.160332,0.382567 0.15471,1.836319 -0.232067,1.377239 0.6962,-0.994673 1.082977,1.759806 -0.309423,1.453752 h -1.160331 v -0.918159 l -1.160332,-0.918159 0.386776,-2.2954 -1.469752,-1.989345 2.088597,-2.295399 0.464132,-3.137044 h 0.696199 l 1.082976,2.448425 v -1.989345 l 0.928266,0.229539 v -2.524931 l -0.696198,-0.612105 -0.928266,1.91283 -0.773554,-2.295397 1.00562,-0.07651 -1.160332,-3.7491501 1.469755,-0.4590797 19.648284,5.7384948 24.521671,6.121063 18.25589,4.208232 z M 66.46727,36.146951 h 0.386777 l 0.07735,0.612107 -0.386778,0.22954 0.07736,0.459078 -0.541488,0.306054 -0.154712,-0.68862 0.386778,-0.306052 z m 3.867772,-3.290071 -0.928266,1.453752 -0.07735,0.612106 0.309421,0.153028 0.386778,-0.459081 0.850908,0.07651 z m -0.309423,-16.526869 0.386778,0.45908 1.005621,-0.22954 0.154711,-0.765134 0.928264,-1.377238 -0.773554,-0.306054 -0.541487,1.224213 -0.07736,-1.224213 -0.850909,0.153026 -0.541488,1.071187 z m 2.475374,-4.208232 0.54149,1.1477 -0.696199,0.153027 -0.618845,0.306053 -0.15471,-1.836319 z m -2.088596,-1.224212 -0.85091,-0.153026 0.386777,1.071186 z m -0.773555,1.912833 0.618844,0.306054 -0.309422,0.841645 1.315043,-0.382566 -0.154711,-1.683293 -0.696199,-0.153026 z m -2.088597,-0.306054 0.232067,2.065859 1.237688,0.994673 0.464131,-1.453753 -0.850909,-1.683291 z M 69.02,11.662701 l -0.850911,-0.765134 -0.696199,0.07651 1.392398,1.147698 z m 2.475374,-5.3559301 h -0.928266 v 0.6121063 l 0.928266,0.4590797 z m -0.6962,24.8668171 0.309422,-2.065859 h -0.85091 l -0.15471,1.453752 z" style="fill-opacity:1;stroke:#000000;stroke-width:1.92333;stroke-dasharray:none;stroke-opacity:1;fill:#fde725" />
    <path class="state" id="West Virginia" d="m 561.69685,229.95509 -0.61884,0.91816 1.16034,0.53559 0.0774,1.1477 3.40364,1.75981 1.77918,-0.0765 1.46975,-1.37724 0.61884,-1.30074 2.32067,1.37725 4.25455,-1.83632 0.38677,-0.68861 -0.61884,-0.38257 0.46414,-1.07119 1.16032,0.76513 3.32628,-2.37191 0.54149,0.84165 1.77918,-1.53027 -0.0774,-1.07118 1.16034,-1.45376 -1.16034,-0.91815 0.77355,-2.52494 2.86215,-4.82034 -0.30942,-1.45375 1.62447,-1.6833 -0.30942,-1.14769 1.08297,-1.30073 0.0774,-3.59612 1.77917,0.53558 1.00562,1.45376 2.16596,0.38257 1.00562,-1.22421 1.77918,-6.50364 1.85652,0.84165 0.77355,-1.91283 0.6962,-0.6121 1.08298,-1.37724 0.69621,-0.6121 0.38676,-1.60679 0.92828,-0.61212 -0.0774,-2.21888 0.61885,-1.7598 -0.6962,-1.22421 0.15472,-0.68862 7.73554,3.97869 0.38677,-1.7598 0.30942,-1.22422 0.30942,-0.53558 -0.69619,-0.30606 0.15472,-1.22422 -0.77357,-0.38255 -0.1547,-0.53561 h -0.54149 l -0.61885,-0.91816 0.15472,-0.76513 -2.01124,0.30606 -1.70183,-1.22422 -1.08298,0.22955 -0.69619,1.07118 h -1.00562 l -1.31505,2.21888 -2.55273,0.30605 -1.46975,-0.76513 -2.01123,2.90751 -1.70184,-0.22954 -2.39802,2.98402 -0.69618,1.22422 -1.39241,1.2242 -1.31504,-8.72252 -13.45985,2.21889 -2.47537,-15.07311 -1.70183,0.91816 1.08297,1.60677 -0.0774,1.68329 0.46413,1.53028 -0.85091,2.60144 -0.0774,4.13172 -0.77356,2.75448 0.38678,0.84164 -0.30943,1.6833 -0.85091,0.38257 -1.5471,2.52493 -1.3924,1.53027 h -0.46413 l -1.3924,1.30072 -1.00561,-0.91816 -1.16034,1.37724 -0.23207,0.91815 h -1.00562 l -1.00562,1.68331 0.0774,1.60678 -0.77355,0.38256 1.08297,0.84164 v 1.45376 l -0.77355,0.15303 -0.54149,0.6121 -0.77355,0.38257 -0.46414,-1.60678 -1.23768,-0.38257 -0.77355,1.75981 -0.23208,1.6833 -0.8509,0.99466 1.00562,2.75448 -1.16034,0.61211 -0.30941,2.67795 h -1.16033 l -2.47539,1.0712 -0.0774,0.84164 0.46415,0.76514 -0.46415,2.75448 1.46976,1.2242 0.61884,0.84165 0.77356,0.45909 -0.0774,0.68861 3.40365,4.28475 h 1.08297 l 1.16034,1.37723 0.92826,0.22955 1.08298,-0.0765 z" style="fill-opacity:1;stroke:#000000;stroke-width:1.92333;stroke-dasharray:none;stroke-opacity:1;fill:#fde725" />
    <path class="state" id="Wisconsin" d="m 474.74932,112.5072 -2.2433,0.61211 0.15471,1.7598 -1.85654,2.60146 -0.15471,2.37191 0.46414,0.5356 0.61884,-0.5356 0.38677,-1.22421 1.54712,-0.84165 1.23768,-3.21356 2.70744,-0.84165 0.61885,-2.52493 0.54149,-0.68862 0.30942,-1.60678 1.3924,-0.84165 v -1.1477 l 0.77356,-0.68862 1.08298,0.0765 v 1.53026 l -0.77356,0.0765 0.38676,0.91815 -0.54147,1.68331 -0.46415,0.0765 -0.92826,3.44311 -0.54148,0.38256 -2.16595,5.50896 -0.23208,3.21356 0.46415,1.53027 0.0773,0.99466 -1.85652,1.45376 0.23205,1.45375 -0.69619,2.37191 0.23207,1.22421 0.30942,2.831 -0.85092,3.13705 -1.16032,3.82567 0.77355,1.14769 -0.23208,0.22954 0.61885,1.30072 -0.38677,0.84165 0.85091,0.68861 v 2.06586 l 1.00563,1.1477 -0.30943,2.29542 0.23207,3.06052 -35.50615,2.14236 -1.00562,-2.14236 -2.55273,-0.5356 -2.08859,-1.14769 -1.54712,-4.20823 0.0774,-1.91283 1.23769,-2.52495 -0.46413,-0.84164 -1.62446,-1.22422 -0.15472,-1.98934 -0.8509,-3.4431 -0.15472,-2.2954 -1.70182,-2.2954 -2.16595,-0.53559 -4.02248,-2.75448 -0.46413,-2.52493 -4.87339,-2.37192 -0.15472,-0.99467 h -2.55272 l -1.70183,-1.98934 -1.54711,-0.99468 0.54148,-3.90217 -0.69619,-1.22422 0.38677,-4.13172 0.77357,-1.37724 -0.23208,-2.06586 -0.92826,-0.99467 -1.3924,-0.22953 v -1.30072 l 2.16596,-4.43778 4.56397,-2.984019 -0.30944,-9.946724 0.69622,0.306053 0.46413,-0.382567 0.0774,-0.841647 0.69618,-0.459078 1.08299,0.918158 0.54148,-0.07652 h 2.01125 l 5.26017,-1.989346 0.23206,-0.765133 h 0.92827 l 0.54149,-0.918159 0.30942,0.612107 1.3924,-0.68862 1.39239,-1.300726 0.23207,0.382567 0.77355,-0.765133 1.70182,1.224212 -0.61885,1.224213 -0.92825,1.071186 0.38678,1.147699 -1.08298,1.224212 0.30941,0.68862 1.77919,-0.841646 v -1.071186 l 2.55273,1.453753 1.46975,0.535592 1.46975,0.535594 2.32067,2.907508 13.15043,2.907507 1.08297,0.76513 3.09421,0.612109 0.5415,0.382565 2.16595,-0.153021 3.79042,0.612101 1.08297,1.147694 -0.77355,0.765139 0.61884,0.61211 2.93951,0.535576 0.92827,0.91817 0.0774,3.36658 -1.00562,2.14237 1.54711,0.0765 0.77355,-0.61212 0.6962,0.61212 -0.85091,2.37191 0.77355,1.22421 0.92827,0.22955 z m -38.29095,-28.539446 -0.38676,0.07651 -1.16034,1.224211 0.15472,0.382567 1.16032,-0.459079 v -0.45908 l 0.6962,-0.22954 z m 1.23769,-0.841647 -0.77355,0.229539 -0.15472,0.535595 0.69621,-0.07652 z m -1.00561,-1.224213 -0.15472,0.688621 h 1.31504 l 0.46414,-0.306054 0.0774,-0.765132 z m 2.16595,-2.295398 -0.23207,1.453752 0.92826,-0.382565 0.0774,-1.071187 z m 45.09822,24.407734 -1.5471,0.22953 -0.30943,0.99468 1.00562,1.30073 z" style="fill-opacity:1;stroke:#000000;stroke-width:1.92333;stroke-dasharray:none;stroke-opacity:1;fill:#440154" />
    <path class="state" id="Wyoming" d="m 276.95144,112.27767 -39.45128,-4.05521 -44.32468,-6.04455 -1.54709,8.18693 -6.57521,41.92928 -2.55274,16.75639 24.8311,3.67265 34.7326,4.36125 29.00829,2.60146 2.86215,-33.81888 z" style="fill-opacity:1;stroke:#000000;stroke-width:1.92333;stroke-dasharray:none;stroke-opacity:1;fill:#440154" />
  </g>
  <text xml:space="preserve" id="TitleA" style="font-style:normal;font-variant:normal;font-weight:bold;font-stretch:normal;font-size:22px;font-family:Verdana;-inkscape-font-specification:'Verdana, Bold';font-variant-ligatures:normal;font-variant-caps:normal;font-variant-numeric:normal;font-variant-east-asian:normal;text-align:start;writing-mode:lr-tb;direction:ltr;white-space:pre;shape-inside:url(#rect2);opacity:1;fill:#000000;stroke-width:2">
     <tspan x="50%" y="2%" id="TitleB1" style="fill:black; alignment-baseline: central; text-anchor: middle;">PCA Results of Participant's Knowledge</tspan><tspan x="50%" y="6%" id="TitleB2" style="fill:black; alignment-baseline: central; text-anchor: middle;">are Correct on American Geography</tspan></text>
</svg>